<ttFont>
          <CharString index="0">
            709 42 rmoveto
            -24 11 9 -30 19 hhcurveto
            13 60 24 16 20 -29 50 -5 9 hvcurveto
            -42 75 -24 63 -36 76 -52 121 -73 120 -42 95 rrcurveto
            31 -16 -1 20 -35 hhcurveto
            -20 -25 -5 -6 -10 hvcurveto
            -17 -22 -10 -26 -15 -24 -63 -107 -202 -349 -45 -80 -14 -25 -42 -45 10 -11 rrcurveto
            -13 12 29 -7 20 hhcurveto
            23 26 72 18 11 hvcurveto
            17 28 62 111 52 94 56 1 126 -5 84 5 rrcurveto
            2 22 0 1 23 hvcurveto
            61 -126 72 -149 -2 4 rrcurveto
            -204 425 rmoveto
            11 -23 13 -29 17 -35 rrcurveto
            -134 hlineto
            -11 -60 -1 -38 hhcurveto
            23 41 18 33 7 12 rrcurveto
            29 17 52 101 14 hhcurveto
            14 48 -109 -19 9 hvcurveto
            return
          </CharString>
          <CharString index="1">
            rmoveto
            -28 -89 callgsubr
            28 38 27 19 45 25 -8 20 -40 -7 -8 0 -1 -6 vhcurveto
            199 hmoveto
            -27 -89 callgsubr
            29 37 27 19 45 25 -8 20 -41 -6 -7 0 -23 callsubr
          </CharString>
          <CharString index="2">
            rmoveto
            14 1 75 -2 14 vhcurveto
            -3 33 1 32 30 37 0 71 36 vvcurveto
            22 -1 25 -1 22 vhcurveto
            2 -12 -20 1 -16 hhcurveto
            -10 -11 0 -4 -7 hvcurveto
            -11 -6 0 -15 -13 -19 -3 -20 -20 vvcurveto
            -1 -26 0 -65 -31 -69 4 -56 -58 vvcurveto
            -6 1 -18 5 -3 vhcurveto
            -5 9 15 0 13 hhcurveto
            16 18 -1 6 12 -68 callsubr
            return
          </CharString>
          <CharString index="3">
            95 hmoveto
            2 72 -7 13 13 hvcurveto
            10 10 -2 98 36 vvcurveto
            22 -2 24 4 15 vhcurveto
            22 3 65 8 24 12 4 2 41 -43 60 -60 38 -37 32 -37 41 -37 12 -9 17 -23 13 -2 15 -1 37 45 1 7 rrcurveto
            11 -19 16 -10 11 vhcurveto
            -36 42 -70 64 -59 60 -10 10 -24 25 1 1 rrcurveto
            52 34 71 76 94 vvcurveto
            137 -148 80 -184 -44 -44 3 -38 vhcurveto
            -17 0 -22 -12 vvcurveto
            -1 -75 -1 -82 -75 -39 0 -38 -38 -45 1 -45 -43 vvcurveto
            -50 0 -37 6 -47 vhcurveto
            92 574 rmoveto
            17 0 18 3 16 vhcurveto
            1 8 7 1 8 hhcurveto
            114 87 -68 -98 -97 -112 -88 -111 -6 hvcurveto
            -3 95 -1 106 103 vvcurveto
            return
          </CharString>
          <CharString index="4">
            173 19 -105 callsubr
            return
          </CharString>
          <CharString index="5">
            95 698 -69 callgsubr
            -3 -172 1 -41 rrcurveto
            -43 1 -41 -47 -31 1 -47 -45 callsubr
            9 -1 39 64 -10 14 51 vhcurveto
            109 vlineto
            35 1 35 39 58 -1 39 61 vvcurveto
            242 vlineto
            19 -16 -39 callsubr
            return
          </CharString>
          <CharString index="6">
            10 -20 -44 41 hhcurveto
            45 11 1 38 hvcurveto
            65 0 95 46 vvcurveto
            130 -68 70 -130 -43 -87 -12 -28 -22 8 -17 11 vhcurveto
            25 26 16 48 hhcurveto
            72 47 -47 callgsubr
            -168 -93 -39 callgsubr
            -1 1 -2 -2 vvcurveto
            -1 0 -62 -2 -28 vhcurveto
            return
          </CharString>
          <CharString index="7">
            -60 callsubr
            -98 callsubr
            return
          </CharString>
          <CharString index="8">
            rmoveto
            130 -99 31 -55 -117 -72 -60 -112 -98 72 -66 94 97 80 72 103 vhcurveto
            -73 -5 rmoveto
            -55 -32 -50 -65 -45 -46 37 73 63 46 36 58 57 27 -46 -58 vhcurveto
            return
          </CharString>
          <CharString index="9">
            -73 callsubr
            -82 callgsubr
            return
          </CharString>
          <CharString index="10">
            84 95 38 53 6 -5 12 -10 -14 -21 -20 -6 -12 hvcurveto
            -10 -21 -31 -5 -30 hhcurveto
            -80 -73 52 109 31 10 -2 38 hvcurveto
            83 73 1 73 hhcurveto
            return
          </CharString>
          <CharString index="11">
            -75 82 17 -44 -48 -53 -40 -12 vvcurveto
            -15 18 -19 30 vhcurveto
            return
          </CharString>
          <CharString index="12">
            rmoveto
            -77 callgsubr
            61 68 1 36 -78 callgsubr
            -65 callgsubr
            return
          </CharString>
          <CharString index="13">
            90 -242 -21 251 61 329 66 hstem
            82 96 253 96 vstem
            180 339 rmoveto
            8 17 66 18 28 3 rrcurveto
            1 7 7 0 7 hhcurveto
            78 50 -57 -102 -94 -42 -76 -116 -86 -9 20 58 50 2 71 -1 50 hvcurveto
            5 -1 12 11 vvcurveto
            4 0 6 2 3 vhcurveto
            -103 -547 rmoveto
            -36 4 -19 21 20 46 1 5 4 vhcurveto
            13 13 -6 86 0 vvcurveto
            1 23 -1 76 3 63 rrcurveto
            -10 37 33 -6 35 hhcurveto
            170 70 120 127 104 -61 105 -132 -77 -56 -36 -19 -26 hvcurveto
            -4 16 2 return
          </CharString>
          <CharString index="14">
            -102 callgsubr
            369 24 rmoveto
            16 2 -22 2 -11 hhcurveto
            -28 -62 -61 -26 -27 hvcurveto
            -14 -14 -15 -13 -13 -11 -16 -14 -17 -16 -16 -16 rrcurveto
            -8 -8 -10 -5 -10 vvcurveto
            -9 21 -19 10 -3 vhcurveto
            -1 5 5 0 7 hhcurveto
            36 -1 70 1 30 -1 rrcurveto
            -40 vlineto
            -1 -27 -1 -37 1 -13 rrcurveto
            -3 0 -36 6 -6 vhcurveto
            return
          </CharString>
          <CharString index="15">
            13 42 61 50 69 vhcurveto
            5 5 4 11 9 vvcurveto
            16 -13 7 -8 -12 -15 -7 -15 -15 vhcurveto
            -28 -28 -116 -104 -38 vvcurveto
            -38 116 -104 28 -28 vhcurveto
            -15 15 15 -7 12 hhcurveto
            8 13 7 16 9 -5 11 -4 5 hvcurveto
            -69 85 -23 46 14 vvcurveto
            return
          </CharString>
          <CharString index="16">
            162 434 rmoveto
            -9 -22 -1 -16 hhcurveto
            -39 5 -30 -41 hvcurveto
            -55 -4 -46 -51 -79 4 -76 -54 vvcurveto
            9 23 -2 20 hhcurveto
            33 9 3 22 hvcurveto
            21 -2 17 21 vvcurveto
            50 -1 90 0 vhcurveto
            0 2 90 -4 44 vhcurveto
            16 29 41 3 31 hhcurveto
            88 30 -59 -102 hvcurveto
            -44 -1 -38 -46 vvcurveto
            -30 1 -38 2 -16 vhcurveto
            -2 16 21 -2 20 hhcurveto
            10 13 -1 5 6 hvcurveto
            3 3 -1 9 10 54 5 48 69 vvcurveto
            136 -17 112 -158 -54 -58 -27 -8 -29 vhcurveto
            -4 13 -2 9 3 vvcurveto
            return
          </CharString>
          <CharString index="17">
            66 38 -50 64 hhcurveto
            72 42 75 26 8 -9 9 -14 hvcurveto
            -14 -8 -50 -44 hhcurveto
            return
          </CharString>
          <CharString index="18">
            274 168 rmoveto
            83 -55 -114 193 -36 hhcurveto
            -13 -45 -19 -15 -18 38 -51 11 -18 hvcurveto
            46 -66 48 -77 49 -62 rrcurveto
            9 -12 18 -20 -9 vvcurveto
            -12 -31 -46 -9 -19 vhcurveto
            -30 -64 -30 -47 -34 -62 rrcurveto
            -5 -11 -10 -22 -6 vvcurveto
            -9 3 30 -15 23 hhcurveto
            24 101 218 25 12 hvcurveto
            16 33 153 288 21 43 9 17 15 23 -1 8 rrcurveto
            9 -3 -30 16 -14 hhcurveto
            -20 -75 -156 -54 -30 hvcurveto
            -13 -24 -10 -26 -18 -16 rrcurveto
            return
          </CharString>
          <CharString index="19">
            511 226 rmoveto
            176 -135 42 -75 -51 callsubr
            133 109 98 140 vhcurveto
            -86 -7 rmoveto
            -68 callgsubr
            return
          </CharString>
          <CharString index="20">
            -3 4 8 -1 9 hhcurveto
            28 11 1 32 3 hvcurveto
            1 16 2 39 22 vvcurveto
            35 -1 22 0 vhcurveto
            0 8 -2 9 8 11 -1 3 7 vhcurveto
            8 5 1 19 8 vvcurveto
            14 -13 2 -15 vhcurveto
            -22 75 hlineto
            26 1 27 32 vvcurveto
            -176 -160 rmoveto
            6 9 10 7 9 8 14 14 17 16 13 12 16 13 10 9 11 12 rrcurveto
            -11 -1 5 -12 vvcurveto
            -37 vlineto
            -14 -1 -16 2 callgsubr
            -2 -21 2 -12 -1 rrcurveto
            return
          </CharString>
          <CharString index="21">
            rmoveto
            -96 callgsubr
            hintmask 11010000
            -94 callgsubr
          </CharString>
          <CharString index="22">
            rmoveto
            99 2 92 43 87 vvcurveto
            47 -38 33 -36 16 vhcurveto
            -3 1 -8 4 -2 1 rrcurveto
            19 14 50 38 50 vvcurveto
            46 -48 28 -72 -49 -57 -23 -14 -12 22 -10 5 6 9 2 2 10 vhcurveto
            3 14 16 3 10 hhcurveto
            38 19 -16 -23 -26 -23 -23 -20 -20 hvcurveto
            -9 -10 -15 -17 0 vvcurveto
            -16 18 -3 10 -5 vhcurveto
            29 -15 28 -18 -32 vvcurveto
            -64 -59 -25 -90 -3 vhcurveto
            -29 -8 24 -16 19 hhcurveto
            endchar
          </CharString>
          <CharString index="23">
            -96 callgsubr
            hintmask 11100100
            -94 callgsubr
          </CharString>
          <CharString index="24">
            -41 8 -32 -84 hvcurveto
            -46 -1 -306 -46 vvcurveto
            -93 -54 -23 -39 -9 -33 5 0 vhcurveto
            -13 -10 -2 -14 -13 vvcurveto
            -21 27 -9 31 189 -4 198 81 42 0 318 -3 50 vhcurveto
            return
          </CharString>
          <CharString index="25">
            vstem
            166 732 rmoveto
            -59 callgsubr
            -38 0 -29 -38 vvcurveto
            -135 7 -106 114 29 26 4 6 20 vhcurveto
            -58 callsubr
            hvcurveto
            73 -1 84 63 64 -1 260 -14 callgsubr
            return
          </CharString>
          <CharString index="26">
            rmoveto
            -83 -38 -91 -19 -12 17 -4 6 hvcurveto
            25 -8 55 58 hhcurveto
            return
          </CharString>
          <CharString index="27">
            66 vstem
            66 350 rmoveto
            -205 157 -157 205 205 157 157 205 205 -157 157 -205 -205 -157 -157 -205 vhcurveto
            66 hmoveto
            171 125 131 171 171 125 -30 callgsubr
            -30 callgsubr
            131 171 vhcurveto
            return
          </CharString>
          <CharString index="28">
            vvcurveto
            -1 -102 -4 -129 -118 vvcurveto
            -46 13 0 37 61 -13 19 42 2 vhcurveto
            2 53 0 80 62 30 1 32 24 vvcurveto
            28 64 7 44 97 12 -41 -81 vhcurveto
            -58 -1 -53 -78 vvcurveto
            -41 -10 -25 45 73 -16 22 55 2 vhcurveto
            2 19 1 113 19 vvcurveto
            150 -33 68 -134 -61 -58 -30 -11 -30 vhcurveto
            endchar
          </CharString>
          <CharString index="29">
            rmoveto
            111 0 417 40 vvcurveto
            18 -1 97 -7 7 vhcurveto
            2 -2 -14 1 -16 hhcurveto
            -21 -26 -2 -4 -4 hvcurveto
            -8 -9 1 -80 -1 -14 -1 -31 -1 -73 -1 -39 rrcurveto
            -46 -1 -435 -46 vvcurveto
            -93 -59 -23 -44 -18 -40 5 0 vhcurveto
            -13 -10 -2 -19 -13 vvcurveto
            -21 37 -9 37 189 16 188 81 vhcurveto
            endchar
          </CharString>
          <CharString index="30">
            -189 250 -30 -132 vvcurveto
            -95 -97 -24 -111 -43 -41 13 0 vhcurveto
            -16 -10 -3 -35 -20 vvcurveto
            -13 65 -4 14 -2 vhcurveto
            -1 12 12 -1 13 hhcurveto
            return
          </CharString>
          <CharString index="31">
            115 3 111 46 30 vvcurveto
            14 -7 19 -12 4 vhcurveto
            -9 -21 -9 -3 -12 hvcurveto
            -9 -46 -45 -10 -56 hhcurveto
            -219 9 -93 137 139 vvcurveto
            4 172 142 69 38 15 rrcurveto
            16 41 52 4 49 hhcurveto
            29 29 -6 -4 26 hvcurveto
            -3 11 40 -10 6 hhcurveto
            6 2 21 34 17 vvcurveto
            return
          </CharString>
          <CharString index="32">
            29 -19 17 -37 -37 -26 -16 -38 -36 22 -190 19 -31 vhcurveto
            -2 2 7 -2 9 hhcurveto
            8 8 2 3 3 hvcurveto
            19 41 22 197 26 vvcurveto
            return
          </CharString>
          <CharString index="33">
            1 -9 -9 0 -10 hhcurveto
            -123 -126 -35 -112 -73 70 -36 66 return
          </CharString>
          <CharString index="34">
            -59 66 -18 12 47 37 35 49 return
          </CharString>
          <CharString index="35">
            -20 98 5 -55 vvcurveto
            -43 -50 -14 -41 vhcurveto
            -11 -14 3 -8 hhcurveto
            0 -7 -8 -11 vvcurveto
            -25 15 -6 24 89 92 33 72 vhcurveto
            endchar
          </CharString>
          <CharString index="36">
            247 rmoveto
            33 3 28 13 -1 hvcurveto
            83 -4 -65 73 -108 hhcurveto
            return
          </CharString>
          <CharString index="37">
            27 31 19 18 26 31 rrcurveto
            8 10 17 14 9 vvcurveto
            7 -1 -30 29 -12 hhcurveto
            -14 -90 -104 -40 -32 hvcurveto
            -6 -5 -122 -137 -9 hhcurveto
            -8 -16 23 13 -12 hvcurveto
            -16 18 -179 181 -16 18 rrcurveto
            17 -14 -13 17 -16 hhcurveto
            return
          </CharString>
          <CharString index="38">
            -182 -159 -53 callsubr
            hintmask 11100000
            143 -180 -86 callsubr
          </CharString>
          <CharString index="39">
            hvcurveto
            2 1 0 12 1 2 rrcurveto
            return
          </CharString>
          <CharString index="40">
            -38 1 -39 -36 -16 -1 -20 -15 vvcurveto
            -45 52 10 49 vhcurveto
            116 -1 139 11 88 49 rrcurveto
            106 62 73 109 127 vvcurveto
            178 -113 69 -32 19 vhcurveto
            52 -87 -128 24 -137 hhcurveto
            return
          </CharString>
          <CharString index="41">
            -1 16 -62 callsubr
            8 61 -2 9 rrcurveto
            hintmask 10000000
            15 -3 -63 -8 -43 -28 return
          </CharString>
          <CharString index="42">
            -5 -12 2 -7 -8 hvcurveto
            return
          </CharString>
          <CharString index="43">
            -81 callsubr
            hintmask 10000000
            -90 callsubr
            hintmask 01100000
            -44 callsubr
          </CharString>
          <CharString index="44">
            rmoveto
            43 56 64 84 62 vvcurveto
            58 -38 39 -80 -38 -75 -23 -26 -18 22 -10 5 vhcurveto
            6 13 32 11 28 hhcurveto
            34 26 -22 -33 -50 -85 -110 -47 -60 hvcurveto
            -17 -21 -11 -19 -1 -8 rrcurveto
            return
          </CharString>
          <CharString index="45">
            hhcurveto
            15 17 1 3 8 hvcurveto
            9 3 return
          </CharString>
          <CharString index="46">
            304 642 rmoveto
            33 33 -11 0 hvcurveto
            15 7 12 37 -6 20 rrcurveto
            13 -4 -74 4 -12 return
          </CharString>
          <CharString index="47">
            -33 -7 -41 -27 -33 vvcurveto
            return
          </CharString>
          <CharString index="48">
            -8 5 18 -1 11 hhcurveto
            182 hlineto
            34 14 10 34 15 -10 2 -16 -6 -4 -1 -1 -5 hvcurveto
            -1 -4 -4 0 -4 hhcurveto
            -112 hlineto
            7 10 9 12 10 13 rrcurveto
            return
          </CharString>
          <CharString index="49">
            12 4 35 11 35 vvcurveto
            8 -2 8 -11 vhcurveto
            -15 -27 -11 -25 hhcurveto
            -43 -25 26 40 return
          </CharString>
          <CharString index="50">
            -16 15 7 -13 14 hhcurveto
            17 33 37 14 20 -36 29 -15 14 hvcurveto
            -16 16 -144 return
          </CharString>
          <CharString index="51">
            vvcurveto
            8 -8 2 -7 -13 -17 -6 -2 -12 vhcurveto
            return
          </CharString>
          <CharString index="52">
            74 -2 73 -10 5 vhcurveto
            -8 4 -20 -3 -14 -3 rrcurveto
            0 -18 -3 -6 vvcurveto
            endchar
          </CharString>
          <CharString index="53">
            rmoveto
            -29 -7 -19 -19 -28 vvcurveto
            -35 23 -17 29 39 24 19 44 27 -10 18 -37 -7 -7 0 -2 -6 vhcurveto
            54 -245 rmoveto
            1 -11 -28 2 -17 hhcurveto
            return
          </CharString>
          <CharString index="54">
            -38 callsubr
            -34 callgsubr
            return
          </CharString>
          <CharString index="55">
            -22 -24 -15 -38 hhcurveto
            -122 -70 62 102 131 110 29 141 27 11 -2 31 30 -73 3 -38 -159 -118 -92 -141 return
          </CharString>
          <CharString index="56">
            -158 -99 -81 -153 -132 98 -90 127 return
          </CharString>
          <CharString index="57">
            24 43 -35 callgsubr
            return
          </CharString>
          <CharString index="58">
            15 0 20 2 4 vhcurveto
            55 4 60 2 58 -11 rrcurveto
            133 -24 105 -74 -165 vvcurveto
            -184 -138 -92 -276 3 vhcurveto
            return
          </CharString>
          <CharString index="59">
            -10 -7 -1 -12 hhcurveto
            -17 hlineto
            -28 -4 -13 -53 hvcurveto
            -67 -3 -79 -71 return
          </CharString>
          <CharString index="60">
            5 -15 -19 0 -16 hhcurveto
            -30 -4 -37 -48 hvcurveto
            return
          </CharString>
          <CharString index="61">
            -49 callgsubr
            hstemhm
            return
          </CharString>
          <CharString index="62">
            -31 -9 -2 -13 -11 vvcurveto
            -21 return
          </CharString>
          <CharString index="63">
            -49 -57 53 -64 hhcurveto
            endchar
          </CharString>
          <CharString index="64">
            -11 -79 -97 -112 -62 38 -39 51 45 33 34 40 hvcurveto
            return
          </CharString>
          <CharString index="65">
            83 59 75 29 10 -26 20 -18 hvcurveto
            -21 -17 -58 -50 hhcurveto
            return
          </CharString>
          <CharString index="66">
            -24 -1 -32 -25 -39 -3 -295 -23 vvcurveto
            return
          </CharString>
          <CharString index="67">
            vhcurveto
            1 -27 0 -47 7 -7 rrcurveto
            -9 10 return
          </CharString>
          <CharString index="68">
            -2 -48 -16 -14 0 -2 -2 vhcurveto
            return
          </CharString>
          <CharString index="69">
            -21 310 -20 hstemhm
            66 return
          </CharString>
          <CharString index="70">
            21 2 22 21 vvcurveto
            135 vlineto
            20 -4 17 -17 vhcurveto
            return
          </CharString>
          <CharString index="71">
            5 callsubr
            31 -3 7 -27 hvcurveto
            return
          </CharString>
          <CharString index="72">
            68 -52 -21 55 71 hstemhm
            return
          </CharString>
          <CharString index="73">
            -4 -9 -1 -10 -14 vvcurveto
            -5 2 -14 3 -6 vhcurveto
            1 -2 12 0 2 -1 rrcurveto
            47 hlineto
            return
          </CharString>
          <CharString index="74">
            -74 callgsubr
            endchar
          </CharString>
          <CharString index="75">
            -214 177 -139 191 return
          </CharString>
          <CharString index="76">
            -13 -12 65 -33 -21 382 63 return
          </CharString>
          <CharString index="77">
            116 84 116 return
          </CharString>
          <CharString index="78">
            -48 -58 -2 -3 -6 hvcurveto
            -12 -5 3 -108 -1 -24 -1 -17 1 -36 -1 -32 return
          </CharString>
          <CharString index="79">
            -17 -3 -52 -42 5 -10 rrcurveto
            -21 91 -83 42 -41 vhcurveto
            33 -36 43 -37 39 -37 return
          </CharString>
          <CharString index="80">
            30 19 22 10 -15 callsubr
            -14 -7 -30 -17 -35 -20 return
          </CharString>
          <CharString index="81">
            55 111 543 90 return
          </CharString>
          <CharString index="82">
            -47 vhcurveto
            -11 -17 4 -8 hhcurveto
            0 -7 -7 -13 vvcurveto
            -34 15 -7 27 101 return
          </CharString>
          <CharString index="83">
            hlineto
            -65 callsubr
            return
          </CharString>
          <CharString index="84">
            -33 callgsubr
            endchar
          </CharString>
          <CharString index="85">
            -11 63 134 -20 17 hhcurveto
            31 5 24 34 34 -5 17 -25 hvcurveto
            return
          </CharString>
          <CharString index="86">
            21 26 2 1 22 hvcurveto
            2 11 1 return
          </CharString>
          <CharString index="87">
            79 hstem
            -26 callsubr
            vstem
            return
          </CharString>
          <CharString index="88">
            -157 rmoveto
            97 -120 -10 9 vvcurveto
            return
          </CharString>
          <CharString index="89">
            89 0 72 267 73 216 71 return
          </CharString>
          <CharString index="90">
            2 -26 19 -156 11 -69 -61 11 -125 18 -25 3 rrcurveto
            return
          </CharString>
          <CharString index="91">
            33 7 41 27 33 vvcurveto
            59 -66 18 -12 -47 -37 -35 -49 return
          </CharString>
          <CharString index="92">
            -14 26 -15 27 -6 4 -23 -13 return
          </CharString>
          <CharString index="93">
            47 -21 384 -20 hstem
            return
          </CharString>
          <CharString index="94">
            -12 74 313 69 return
          </CharString>
          <CharString index="95">
            195 endchar
          </CharString>
          <CharString index="96">
            vvcurveto
            -17 3 -7 17 67 11 6 44 vhcurveto
            51 -1 return
          </CharString>
          <CharString index="97">
            4 callgsubr
            85 -85 167 return
          </CharString>
          <CharString index="98">
            -40 23 -22 41 7 9 1 1 8 vhcurveto
            endchar
          </CharString>
          <CharString index="99">
            rmoveto
            -4 -9 8 -10 9 -15 return
          </CharString>
          <CharString index="100">
            -5 -3 -11 -4 -4 -10 rrcurveto
            return
          </CharString>
          <CharString index="101">
            -20 21 -20 hstemhm
            return
          </CharString>
          <CharString index="102">
            -15 -3 -28 -19 vvcurveto
            -25 19 1 34 72 -18 return
          </CharString>
          <CharString index="103">
            44 98 283 86 return
          </CharString>
          <CharString index="104">
            rmoveto
            -21 vlineto
            -29 17 0 62 vhcurveto
            20 hlineto
            return
          </CharString>
          <CharString index="105">
            109 255 -20 hstemhm
            270 110 return
          </CharString>
          <CharString index="106">
            -7 65 680 -20 hstem
            return
          </CharString>
          <CharString index="107">
            74 -12 77 367 -20 return
          </CharString>
          <CharString index="108">
            hhcurveto
            36 24 return
          </CharString>
          <CharString index="109">
            -25 17 -5 34 35 24 5 31 return
          </CharString>
          <CharString index="110">
            -25 -5 -17 -34 -34 5 -24 32 return
          </CharString>
          <CharString index="111">
            85 561 78 hstem
            55 111 return
          </CharString>
          <CharString index="112">
            36 24 0 29 return
          </CharString>
        <CharString name=".notdef">
          -231 endchar
        </CharString>
        <CharString name="A">
          -40 callgsubr
          hstem
          -107 callsubr
          endchar
        </CharString>
        <CharString name="AE">
          537 0 72 -63 -21 322 68 -39 73 216 73 hstemhm
          538 101 hintmask 01101100
          641 621 rmoveto
          8 46 47 -1 49 -73 callgsubr
          25 -103 -7 -146 -17 -18 -1 -1 -18 vhcurveto
          -111 1 rlineto
          -46 -19 -24 -59 -40 hvcurveto
          -25 -37 -318 -463 -19 -28 rrcurveto
          -15 -22 -38 -40 -15 vvcurveto
          -15 50 -9 18 24 32 72 18 12 vhcurveto
          20 29 75 110 61 94 rrcurveto
          20 hlineto
          38 57 -1 55 hhcurveto
          26 26 0 1 23 hvcurveto
          -2 -154 1 -30 -20 vvcurveto
          -38 1 -55 9 -8 vhcurveto
          hintmask 10011100
          -6 7 39 0 15 hhcurveto
          245 hlineto
          44 45 1 5 9 hvcurveto
          6 5 17 45 17 -56 callsubr
          -4 -35 -39 1 -43 hhcurveto
          -64 -89 1 11 -5 hvcurveto
          -2 6 -1 35 39 127 2 30 18 vvcurveto
          78 81 -1 62 hhcurveto
          39 22 6 52 18 -70 -2 -43 hvcurveto
          -56 callgsubr
          -302 -242 rmoveto
          27 41 98 150 56 54 rrcurveto
          0 6 4 4 9 2 -62 -2 -60 1 25 -3 -152 vhcurveto
          -91 3 rlineto
          -11 -60 -1 -38 hhcurveto
          endchar
        </CharString>
        <CharString name="Aacute">
          -40 callgsubr
          111 -46 callsubr
          hintmask 11100000
          -107 callsubr
          hintmask 00011000
          -55 331 -105 callgsubr
        </CharString>
        <CharString name="Acircumflex">
          351 224 268 65 -12 callsubr
        </CharString>
        <CharString name="Adieresis">
          351 221 268 65 200 endchar
        </CharString>
        <CharString name="Agrave">
          351 249 268 65 -5 callgsubr
        </CharString>
        <CharString name="Aring">
          -40 callgsubr
          75 54 118 51 hstemhm
          336 62 107 60 hintmask 11100000
          -107 callsubr
          hintmask 00011110
          60 413 -91 callgsubr
        </CharString>
        <CharString name="Atilde">
          -40 callgsubr
          102 -35 callsubr
          hintmask 11100000
          -107 callsubr
          hintmask 00001100
          -118 444 -64 callgsubr
        </CharString>
        <CharString name="B">
          137 -2 56 271 53 247 76 hstemhm
          90 100 244 85 -45 100 hintmask 11111000
          424 373 rmoveto
          48 38 47 27 83 vvcurveto
          116 -126 64 -172 vhcurveto
          -21 hlineto
          -33 -77 0 -27 hvcurveto
          -512 vlineto
          -31 -5 -102 12 -15 vhcurveto
          -16 13 67 0 31 hhcurveto
          93 113 5 50 74 hvcurveto
          hintmask 11110100
          38 26 48 61 68 vvcurveto
          92 -73 44 -77 29 vhcurveto
          -231 -53 rmoveto
          10 10 38 -5 14 hhcurveto
          146 73 -57 -89 -81 -88 -44 -138 -39 -19 1 20 hvcurveto
          73 -2 70 75 vvcurveto
          12 1 11 4 4 vhcurveto
          190 94 rmoveto
          -27 -37 -54 -9 -54 hhcurveto
          -16 -17 1 1 -15 hvcurveto
          -4 59 2 57 65 vvcurveto
          49 -10 15 54 vhcurveto
          hintmask 11111000
          95 107 -23 -96 -41 -27 -34 -24 -17 hvcurveto
          endchar
        </CharString>
        <CharString name="C">
          238 -12 4 callsubr
          vstem
          660 664 rmoveto
          -17 callgsubr
          -234 231 -105 174 -4 hvcurveto
          -76 callsubr
          endchar
        </CharString>
        <CharString name="Ccedilla">
          238 -262 47 203 4 callsubr
          244 89 vstem
          499 -19 callsubr
          14 21 23 7 17 vhcurveto
          18 -3 18 -1 17 -1 rrcurveto
          -76 callsubr
          -17 callgsubr
          -190 152 -105 150 -35 hvcurveto
          -23 -27 -22 -54 -8 -72 callsubr
        </CharString>
        <CharString name="D">
          285 1 73 541 85 hstem
          91 98 414 108 vstem
          214 700 rmoveto
          -29 callsubr
          rrcurveto
          -2 -88 -1 -95 -90 -67 callsubr
          -24 -183 rmoveto
          14 0 25 20 vvcurveto
          -49 callsubr
          1 142 0 140 161 vvcurveto
          endchar
        </CharString>
        <CharString name="E">
          -18 callsubr
          hstem
          92 99 vstem
          -104 callgsubr
          endchar
        </CharString>
        <CharString name="Eacute">
          -18 callsubr
          100 -46 callsubr
          92 99 hintmask 11100100
          -104 callgsubr
          hintmask 00011000
          116 177 -105 callgsubr
        </CharString>
        <CharString name="Ecircumflex">
          89 53 268 69 -12 callsubr
        </CharString>
        <CharString name="Edieresis">
          -18 callsubr
          86 6 callgsubr
          92 99 -64 -30 callsubr
          hintmask 11101000
          -104 callgsubr
          hintmask 00010110
          -19 272 -106 callsubr
        </CharString>
        <CharString name="Egrave">
          89 108 268 69 -5 callgsubr
        </CharString>
        <CharString name="Eth">
          285 1 73 184 67 290 85 hstem
          88 102 413 108 vstem
          8 321 rmoveto
          0 callgsubr
          -28 20 -1 66 1 vhcurveto
          -57 vlineto
          -67 callsubr
          -29 callsubr
          -1 -48 -1 -49 -1 -50 rrcurveto
          -55 -24 callsubr
          182 196 rmoveto
          59 vlineto
          -49 callsubr
          61 1 61 62 vvcurveto
          96 hlineto
          -36 callsubr
          -126 hlineto
          endchar
        </CharString>
        <CharString name="Euro">
          261 -12 85 160 69 86 68 178 78 hstem
          42 452 rmoveto
          0 callgsubr
          -29 20 0 74 1 vhcurveto
          -3 -18 -1 -20 -19 vvcurveto
          -10 0 -10 1 -10 vhcurveto
          -47 -1 -39 -2 -3 -6 rrcurveto
          -34 callsubr
          9 15 0 1 16 hvcurveto
          51 -165 176 -75 135 -4 rrcurveto
          106 3 101 46 30 vvcurveto
          14 -6 19 -11 4 vhcurveto
          -8 -20 -9 -3 -11 hvcurveto
          -9 -42 -41 -10 -51 hhcurveto
          -139 6 -81 67 -37 87 rrcurveto
          72 120 -1 4 57 hvcurveto
          5 11 4 10 6 16 9 29 -17 -1 -21 1 rrcurveto
          -255 hlineto
          -3 18 -1 19 19 vvcurveto
          11 1 10 1 10 vhcurveto
          1 29 29 0 19 24 159 -35 callgsubr
          0 29 9 hvcurveto
          31 9 0 7 -27 hhcurveto
          -315 hlineto
          37 101 82 45 27 12 rrcurveto
          16 38 48 4 45 hhcurveto
          26 27 -6 -4 23 hvcurveto
          -3 11 36 -10 6 hhcurveto
          5 2 19 34 17 vvcurveto
          18 -112 29 -55 1 vhcurveto
          -175 -145 -103 -152 -52 hvcurveto
          -79 -24 callsubr
          endchar
        </CharString>
        <CharString name="F">
          39 19 -21 335 74 217 76 hstem
          94 92 vstem
          188 624 rmoveto
          -1 17 17 1 17 41 41 1 41 26 17 -1 34 hhcurveto
          12 12 1 3 5 hvcurveto
          8 4 11 50 10 vvcurveto
          10 -12 -170 -2 -42 -8 -8 -1 -7 hhcurveto
          -27 -1 -101 2 -10 -11 -9 -10 3 -45 -2 -25 rrcurveto
          -6 -103 1 -111 -107 vvcurveto
          -247 vlineto
          -28 -1 -15 34 44 20 1 22 vhcurveto
          16 -1 23 12 vvcurveto
          55 vlineto
          2 65 -4 84 4 59 rrcurveto
          -2 35 47 0 46 23 36 -1 30 hhcurveto
          33 13 -3 32 13 hvcurveto
          4 8 6 12 9 vvcurveto
          21 -103 -4 -21 vhcurveto
          -57 -50 -1 -54 hhcurveto
          -1 10 0 9 10 19 1 23 19 vvcurveto
          40 -3 48 3 40 vhcurveto
          endchar
        </CharString>
        <CharString name="G">
          325 -13 65 590 70 hstem
          55 112 467 101 vstem
          730 346 rmoveto
          5 -5 -32 -1 -17 hhcurveto
          -32 -10 -1 -42 hvcurveto
          -47 -1 -41 -54 -20 -1 -26 -19 vvcurveto
          -20 -79 -28 -79 -174 -133 127 163 190 137 76 64 21 vhcurveto
          9 28 34 4 36 hhcurveto
          40 44 -5 -10 37 hvcurveto
          -1 6 18 -8 13 hhcurveto
          14 7 25 27 -1 hvcurveto
          25 -7 -115 17 -55 hhcurveto
          -219 -193 -129 -252 -225 184 -119 200 78 83 27 23 39 hvcurveto
          22 -11 58 -9 12 9 rrcurveto
          7 5 -3 174 65 vvcurveto
          25 3 44 -8 7 vhcurveto
          endchar
        </CharString>
        <CharString name="H">
          327 20 -21 22 -21 346 66 288 -6 callsubr
          90 104 -94 94 433 88 hintmask 01110101
          718 698 rmoveto
          -1 -5 -15 3 -9 hhcurveto
          hintmask 01101101
          -10 -12 1 -11 hhcurveto
          -35 9 -19 -29 -3 hvcurveto
          -19 vlineto
          -2 -57 2 -60 -56 vvcurveto
          -36 vlineto
          -12 0 -3 -11 vhcurveto
          -20 -16 2 -15 -98 -150 -2 -123 hhcurveto
          -3 48 2 77 46 vvcurveto
          51 vlineto
          12 1 18 14 vvcurveto
          hintmask 01110011
          23 -22 1 -24 -15 -19 0 -1 -14 vhcurveto
          hintmask 01110101
          -5 -162 -5 -170 -146 vvcurveto
          -74 -5 -75 12 -69 vhcurveto
          -2 6 5 -1 6 hhcurveto
          12 49 0 6 8 hvcurveto
          17 11 -7 146 -5 vvcurveto
          190 vlineto
          -1 39 42 -1 44 100 108 2 99 hhcurveto
          1 -93 -3 -77 1 -93 rrcurveto
          -53 vlineto
          hintmask 10110101
          -28 0 -5 26 33 17 0 13 8 vhcurveto
          8 14 -3 28 2 29 rrcurveto
          3 55 2 285 46 vvcurveto
          74 0 79 -2 76 vhcurveto
          endchar
        </CharString>
        <CharString name="I">
          -201 21 -21 hstem
          91 100 vstem
          -102 callsubr
          endchar
        </CharString>
        <CharString name="IJ">
          77 -262 67 216 -21 700 -20 hstemhm
          91 100 180 99 hintmask 01010000
          -102 callsubr
          hintmask 10101000
          375 -691 -78 callsubr
        </CharString>
        <CharString name="Iacute">
          -201 21 -21 799 -46 callsubr
          91 100 hintmask 10010000
          -102 callsubr
          hintmask 01100000
          70 100 -105 callgsubr
        </CharString>
        <CharString name="Icircumflex">
          -201 -92 268 73 -12 callsubr
        </CharString>
        <CharString name="Idieresis">
          -201 21 -21 785 6 callgsubr
          -18 116 -7 100 -9 116 hintmask 10010000
          -102 callsubr
          hintmask 01101000
          -66 195 -106 callsubr
        </CharString>
        <CharString name="Igrave">
          -201 -56 268 73 -5 callgsubr
        </CharString>
        <CharString name="Itilde">
          -201 -127 268 73 196 endchar
        </CharString>
        <CharString name="J">
          -203 -262 67 895 -20 hstem
          91 99 vstem
          190 7 -78 callsubr
        </CharString>
        <CharString name="Jcircumflex">
          -203 -93 268 74 -12 callsubr
        </CharString>
        <CharString name="K">
          170 9 -21 33 -21 712 -20 hstemhm
          88 104 hintmask 01110000
          192 395 rmoveto
          -5 91 1 113 81 vvcurveto
          24 -21 -3 -33 -20 -21 -2 -6 -1 vhcurveto
          -4 -54 0 -70 -66 -180 4 -226 -32 vvcurveto
          -39 -3 -26 52 49 6 9 40 vhcurveto
          37 -4 35 15 vvcurveto
          47 -6 113 11 7 vhcurveto
          21 -7 15 -18 15 -13 rrcurveto
          101 -87 181 -152 -1 vvcurveto
          0 -1 0 0 vhcurveto
          hintmask 10110000
          -15 18 19 -22 19 hhcurveto
          15 40 35 15 28 -159 128 -12 10 hvcurveto
          -43 35 -55 52 -48 36 rrcurveto
          -12 10 -40 18 11 vvcurveto
          8 23 18 7 6 vhcurveto
          80 75 87 84 72 76 11 12 23 18 1 11 rrcurveto
          12 -24 26 -15 -12 -18 -23 -12 -13 vhcurveto
          -116 -107 -152 -151 -33 -24 rrcurveto
          endchar
        </CharString>
        <CharString name="L">
          -32 callgsubr
          93 98 hintmask 10011000
          188 84 rmoveto
          2 58 1 62 67 67 -1 67 60 -37 callsubr
          hintmask 10101000
          -48 callsubr
          vvcurveto
          -109 -4 -110 4 -108 -70 callgsubr
          endchar
        </CharString>
        <CharString name="Ldotaccent">
          -32 callgsubr
          93 98 86 146 hintmask 10011100
          188 84 rmoveto
          2 58 1 62 67 67 -1 67 60 -37 callsubr
          hintmask 10101100
          -48 callsubr
          vvcurveto
          -109 -4 -110 4 -108 -51 callgsubr
          hintmask 01011100
          -41 callgsubr
          hintmask 10011100
          -60 callgsubr
          156 354 -80 callgsubr
        </CharString>
        <CharString name="Lslash">
          -32 callgsubr
          88 103 hintmask 10011000
          -3 244 -8 callsubr
          12 -23 16 7 50 28 rrcurveto
          -44 0 -44 2 -44 -70 callgsubr
          2 58 1 62 67 vvcurveto
          8 vlineto
          44 25 56 33 14 8 31 18 21 11 -15 callsubr
          -15 -8 -44 -25 -49 -27 rrcurveto
          -1 37 0 36 34 -37 callsubr
          hintmask 10101000
          -48 callsubr
          -39 -1 -38 -39 vvcurveto
          -35 -19 -28 -16 -9 -5 -7 callsubr
          endchar
        </CharString>
        <CharString name="M">
          504 19 -21 707 -20 hstem
          84 76 vstem
          749 640 rmoveto
          -72 -123 -69 -126 -75 -127 -10 -16 -21 -41 -13 -1 -9 1 -44 99 -16 29 -5 11 -55 108 -4 7 -16 31 -81 156 -17 31 -10 19 -2 8 -16 -1 rrcurveto
          -29 -27 -11 -13 hvcurveto
          -2 -24 -11 -52 -3 -26 -19 -174 -23 -163 -16 -167 rrcurveto
          -16 -7 -26 1 -16 vhcurveto
          -18 7 -1 17 vhcurveto
          48 2 6 4 4 51 5 60 4 47 6 57 7 89 19 173 7 73 25 -50 175 -339 22 -52 rrcurveto
          -15 6 25 -45 12 hhcurveto
          19 1 64 121 30 47 54 85 85 155 43 70 rrcurveto
          4 -34 32 -409 -18 vvcurveto
          -35 1 7 -38 24 hhcurveto
          75 2 -1 2 -4 48 -9 105 -30 283 -10 102 -6 55 0 60 -11 40 -8 9 -41 -1 -12 -8 rrcurveto
          endchar
        </CharString>
        <CharString name="N">
          388 11 -21 28 -21 711 -20 hstemhm
          88 72 -66 66 544 66 -66 77 hintmask 01101100
          698 146 rmoveto
          -17 18 -323 329 -10 9 -57 53 -40 49 -78 72 rrcurveto
          17 -16 -17 15 -11 hhcurveto
          -46 11 -31 -42 -98 -3 -101 -2 -93 hvcurveto
          -43 1 -45 -35 vvcurveto
          hintmask 01110100
          -65 -2 -42 -71 vvcurveto
          -37 2 -8 22 32 16 9 25 vhcurveto
          7 0 11 7 77 3 98 112 61 -2 60 53 vvcurveto
          9 1 10 5 14 13 -20 -8 7 vhcurveto
          51 -51 392 -399 4 -4 rrcurveto
          hintmask 10110100
          -22 22 34 -42 27 hhcurveto
          34 5 13 52 hvcurveto
          15 1 15 11 vvcurveto
          1 33 3 197 35 vvcurveto
          hintmask 01110010
          95 6 117 101 vvcurveto
          27 -4 2 -18 -17 -27 -6 -1 -7 vhcurveto
          -2 -110 -2 -107 -111 -41 -1 -46 -39 vvcurveto
          -33 -1 -31 -4 -32 vhcurveto
          endchar
        </CharString>
        <CharString name="Nacute">
          388 298 258 78 194 endchar
        </CharString>
        <CharString name="Ntilde">
          388 167 268 78 196 endchar
        </CharString>
        <CharString name="O">
          -12 83 562 -20 callsubr
          -97 callgsubr
          endchar
        </CharString>
        <CharString name="OE">
          551 -12 83 -71 71 268 73 216 71 -71 84 hstemhm
          55 111 389 98 hintmask 10110110
          655 -93 callgsubr
          hintmask 10101110
          -7 -77 -49 20 -76 hhcurveto
          -328 -61 -268 -103 -32 callsubr
          hvcurveto
          hintmask 01110110
          76 50 12 73 hhcurveto
          183 hlineto
          -103 callgsubr
          -227 -550 rmoveto
          -156 -106 114 174 -44 callgsubr
          35 35 -8 -10 29 hvcurveto
          -16 1 -18 -7 -41 callsubr
          -46 vlineto
          -16 -36 -42 -3 -45 hhcurveto
          endchar
        </CharString>
        <CharString name="Oacute">
          -12 83 562 79 87 -46 callsubr
          -26 callsubr
          hintmask 11001100
          -97 callgsubr
          hintmask 00110000
          265 439 -105 callgsubr
        </CharString>
        <CharString name="Ocircumflex">
          195 268 79 -12 callsubr
        </CharString>
        <CharString name="Odieresis">
          192 268 79 200 endchar
        </CharString>
        <CharString name="Ograve">
          250 268 79 -5 callgsubr
        </CharString>
        <CharString name="Oslash">
          -12 83 562 -20 callsubr
          55 341 rmoveto
          -107 44 -87 67 -62 vhcurveto
          -37 -45 -24 -30 -4 -11 -6 -17 12 -11 29 -11 8 -3 36 35 45 50 rrcurveto
          -35 58 69 -19 71 hhcurveto
          -31 callgsubr
          116 -41 89 -66 59 hvcurveto
          36 45 25 33 3 vvcurveto
          1 4 -21 21 -18 7 -8 2 -30 -29 -40 -46 rrcurveto
          33 -56 -67 17 -70 hhcurveto
          -328 -61 -268 -103 hvcurveto
          654 20 rmoveto
          -38 callgsubr
          -55 -49 14 26 -40 vhcurveto
          58 69 63 79 42 56 36 47 82 102 71 88 rrcurveto
          44 -48 29 -67 -76 vvcurveto
          -325 -8 rmoveto
          -57 -74 -53 -65 -45 -54 rrcurveto
          -40 50 -23 68 81 vvcurveto
          -44 callgsubr
          45 43 -13 -23 37 vhcurveto
          -64 -76 -75 -95 -57 -73 rrcurveto
          endchar
        </CharString>
        <CharString name="Otilde">
          -12 83 562 79 78 -35 callsubr
          -26 callsubr
          hintmask 11000110
          -97 callgsubr
          hintmask 00011000
          192 552 -83 callgsubr
        </CharString>
        <CharString name="P">
          92 20 -21 623 78 hstem
          88 102 233 95 vstem
          256 279 rmoveto
          -1 -6 -1 -15 -4 vvcurveto
          -19 13 -5 16 95 68 63 50 33 vhcurveto
          18 27 21 61 43 vvcurveto
          112 -67 57 -77 30 vhcurveto
          23 -58 -90 4 -79 hhcurveto
          -50 -8 -17 -66 hvcurveto
          -26 -1 -29 -22 vvcurveto
          -498 -2 callgsubr
          97 -3 156 135 vvcurveto
          119 vlineto
          18 1 11 15 129 91 -43 -122 -104 -78 -49 -89 -25 vhcurveto
          endchar
        </CharString>
        <CharString name="Q">
          -155 -21 809 -20 callsubr
          589 23 rmoveto
          124 57 86 121 157 vvcurveto
          -46 callgsubr
          -274 -97 vhcurveto
          1 -185 130 -128 159 -32 81 -16 76 -48 78 -33 41 -17 134 -41 51 -9 13 -2 16 -5 9 -1 rrcurveto
          8 24 42 17 7 -32 9 -23 4 hvcurveto
          -31 6 -149 48 -50 20 -11 4 -33 18 -2 5 -2 6 31 6 15 7 rrcurveto
          -423 336 -84 callgsubr
          endchar
        </CharString>
        <CharString name="R">
          134 21 -21 627 73 hstem
          90 101 223 96 vstem
          -104 callsubr
          endchar
        </CharString>
        <CharString name="Racute">
          134 131 268 82 194 endchar
        </CharString>
        <CharString name="Rcaron">
          134 21 -21 627 73 91 -21 hstemhm
          90 101 223 96 hintmask 11011000
          -104 callsubr
          hintmask 00100000
          105 282 -100 callgsubr
        </CharString>
        <CharString name="Rcommaaccent">
          134 -334 -21 376 -21 627 73 hstemhm
          90 101 48 -34 callgsubr
          8 96 hintmask 11111010
          -104 callsubr
          129 -929 rmoveto
          -96 callgsubr
          hintmask 11110110
          -94 callgsubr
        </CharString>
        <CharString name="S">
          6 -12 73 581 70 hstem
          72 98 152 99 vstem
          -85 callgsubr
          endchar
        </CharString>
        <CharString name="Scaron">
          6 -12 73 581 70 79 -21 hstemhm
          72 98 152 99 hintmask 11011000
          -85 callgsubr
          hintmask 00100000
          -61 214 -100 callgsubr
        </CharString>
        <CharString name="T">
          251 21 -21 623 77 hstemhm
          292 97 -97 103 hintmask 11100000
          295 619 rmoveto
          4 -5 -7 -66 -33 -25 0 -24 -25 -56 -2 -49 -65 vvcurveto
          -97 -4 -160 14 -9 vhcurveto
          -4 5 10 -1 13 hhcurveto
          65 -7 12 47 3 hvcurveto
          8 127 -5 120 2 108 rrcurveto
          hintmask 11010000
          47 1 41 93 vvcurveto
          31 6 -3 15 32 46 0 2 25 vhcurveto
          28 2 50 0 17 1 20 1 69 -3 8 9 rrcurveto
          6 5 4 22 16 vvcurveto
          31 -23 -9 -59 vhcurveto
          -61 -65 -1 -63 -64 -72 1 -65 hhcurveto
          -12 -134 -2 -1 -12 hvcurveto
          -58 -3 -22 15 -64 vvcurveto
          -32 48 10 19 76 134 5 -9 7 vhcurveto
          endchar
        </CharString>
        <CharString name="Thorn">
          93 20 -21 490 72 hstem
          89 98 237 95 vstem
          257 207 rmoveto
          -1 -5 -1 -19 -3 vvcurveto
          -17 13 -4 16 95 68 54 43 33 vhcurveto
          18 23 21 52 37 vvcurveto
          96 -67 49 -77 25 vhcurveto
          -49 17 -71 5 -68 1 rrcurveto
          122 vlineto
          19 -16 -2 -48 -16 -12 0 -2 -2 vhcurveto
          -50 callgsubr
          1 -104 -1 -38 vhcurveto
          -430 -2 callgsubr
          18 -3 145 58 vvcurveto
          157 vlineto
          15 1 10 15 129 91 -31 -105 -89 -76 -39 -91 -18 vhcurveto
          endchar
        </CharString>
        <CharString name="U">
          -18 callgsubr
          hstemhm
          77 100 524 76 hintmask 10111000
          -98 callgsubr
          hintmask 11011000
          -26 callgsubr
          endchar
        </CharString>
        <CharString name="Uacute">
          -18 callgsubr
          108 -46 callsubr
          77 100 524 76 hintmask 10100110
          -98 callgsubr
          hintmask 11000110
          -26 callgsubr
          hintmask 00011000
          365 94 -105 callgsubr
        </CharString>
        <CharString name="Ucircumflex">
          374 201 258 85 -12 callsubr
        </CharString>
        <CharString name="Udieresis">
          -18 callgsubr
          94 6 callgsubr
          77 100 92 -30 callsubr
          116 76 hintmask 10101001
          -98 callgsubr
          hintmask 11001001
          -26 callgsubr
          hintmask 00010110
          229 189 -106 callsubr
        </CharString>
        <CharString name="Ugrave">
          374 241 258 85 -5 callgsubr
        </CharString>
        <CharString name="V">
          226 -13 callgsubr
          hstem
          641 711 rmoveto
          -15 -5 -18 -44 -9 -21 -78 -175 -130 -264 -19 -40 rrcurveto
          -17 -8 -5 -13 -6 hhcurveto
          -12 -41 106 31 -13 hvcurveto
          -15 38 -125 293 -19 44 rrcurveto
          28 -12 -13 40 -19 hhcurveto
          -23 -50 -13 -14 -12 11 -23 5 -16 hvcurveto
          30 -86 26 -66 29 -68 29 -65 36 -88 34 -67 25 -49 19 -41 26 -52 rrcurveto
          -28 14 14 -36 25 hhcurveto
          24 11 20 27 12 hvcurveto
          32 69 42 71 28 69 41 89 44 81 41 86 21 44 30 67 19 41 rrcurveto
          7 15 10 18 10 vvcurveto
          8 -27 9 -19 -3 -3 0 -1 -3 vhcurveto
          endchar
        </CharString>
        <CharString name="W">
          539 16 -21 23 -21 715 -20 hstemhm
          hintmask 01100000
          363 150 rmoveto
          -34 87 -50 97 -41 92 -27 61 -45 97 -35 65 rrcurveto
          25 -13 -14 38 -22 hhcurveto
          -22 1 -37 -18 -8 vvcurveto
          -1 -11 9 -23 5 -13 19 -48 23 -58 19 -42 28 -61 152 -326 19 -34 rrcurveto
          -16 8 21 -58 21 hhcurveto
          28 -1 34 81 12 28 rrcurveto
          22 10 83 205 10 hhcurveto
          14 40 -125 -45 21 hvcurveto
          hintmask 10100000
          27 -56 47 -110 20 -1 rrcurveto
          33 29 78 23 10 hvcurveto
          18 40 12 38 18 39 8 20 111 271 8 23 19 49 39 77 1 40 rrcurveto
          8 -20 11 -19 -21 -10 -45 -23 -9 vhcurveto
          -51 -130 -74 -166 -50 -135 rrcurveto
          -23 -8 -9 -34 -9 hhcurveto
          -13 -129 314 23 -9 hvcurveto
          -23 59 -25 56 -32 64 rrcurveto
          21 -10 -6 7 -16 hhcurveto
          -17 -41 -14 -15 -3 hvcurveto
          -3 -19 59 -122 22 -63 rrcurveto
          6 -16 6 -14 -11 vvcurveto
          -16 -17 -41 -9 -20 vhcurveto
          -27 -57 -28 -49 -23 -58 -4 -11 -8 -19 -5 -5 rrcurveto
          endchar
        </CharString>
        <CharString name="X">
          188 -13 callgsubr
          hstem
          553 712 rmoveto
          -15 -32 -49 -14 -11 hvcurveto
          -61 -47 -102 -147 -9 hhcurveto
          0 -102 129 -11 14 vhcurveto
          -38 49 -54 80 -24 -1 rrcurveto
          -10 -19 -18 -7 -7 hvcurveto
          -13 -8 -12 -6 -14 vvcurveto
          -7 13 -18 8 -11 vhcurveto
          45 -64 63 -77 44 -56 rrcurveto
          9 -11 39 -48 -11 vvcurveto
          -13 -53 -66 -16 -22 vhcurveto
          -57 -67 -37 -60 -47 -64 rrcurveto
          -4 -7 -21 -27 -14 vvcurveto
          -7 3 30 -21 15 hhcurveto
          13 2 29 45 5 6 53 74 58 65 52 76 rrcurveto
          12 8 17 24 8 hhcurveto
          2 67 -82 -28 20 hvcurveto
          29 -41 101 -133 31 -20 rrcurveto
          21 41 39 20 8 -14 13 -4 8 hvcurveto
          -54 79 -78 90 -75 98 rrcurveto
          -8 10 -18 22 6 vvcurveto
          11 46 50 19 27 vhcurveto
          36 48 39 52 35 44 rrcurveto
          7 9 36 37 25 vvcurveto
          9 -37 19 -13 vhcurveto
          endchar
        </CharString>
        <CharString name="Y">
          191 21 -21 712 -20 hstem
          288 100 vstem
          66 712 rmoveto
          -28 callsubr
          rrcurveto
          23 -21 15 -11 -25 -36 -2 -26 -41 -14 -2 -128 -14 -5 callsubr
          36 127 vhcurveto
          72 0 59 56 vvcurveto
          23 159 159 27 31 vhcurveto
          -70 callsubr
          endchar
        </CharString>
        <CharString name="Yacute">
          191 189 258 89 194 endchar
        </CharString>
        <CharString name="Ydieresis">
          191 111 258 89 200 endchar
        </CharString>
        <CharString name="Z">
          164 0 74 -74 81 552 67 hstemhm
          hintmask 10100000
          559 693 rmoveto
          11 -17 -30 -4 -29 hhcurveto
          -402 hlineto
          -27 1 -21 -14 -18 11 -15 49 1 hvcurveto
          1 59 145 2 62 hhcurveto
          19 12 -1 -2 16 hvcurveto
          -24 -39 -136 -218 -25 -40 -17 -28 -141 -210 -21 -35 -6 -11 -19 -22 7 -14 rrcurveto
          -20 10 285 4 163 hhcurveto
          25 26 1 1 27 hvcurveto
          24 1 17 6 43 vvcurveto
          24 -17 -4 -33 2 vhcurveto
          hintmask 01100000
          -72 4 -206 0 -77 3 rrcurveto
          -6 -5 -1 3 -5 hvcurveto
          31 60 298 470 17 32 rrcurveto
          7 13 9 12 15 vvcurveto
          3 -3 4 -2 1 vhcurveto
          endchar
        </CharString>
        <CharString name="Zcaron">
          164 90 268 90 207 endchar
        </CharString>
        <CharString name="a">
          -31 callsubr
          hstemhm
          311 91 hintmask 10110000
          -81 callgsubr
          hintmask 01110000
          -101 callsubr
          hintmask 10110000
          -71 callgsubr
          endchar
        </CharString>
        <CharString name="aacute">
          -31 callsubr
          87 -46 callsubr
          311 91 hintmask 10100100
          -81 callgsubr
          hintmask 01100100
          -101 callsubr
          hintmask 10100100
          -71 callgsubr
          hintmask 00011000
          96 380 -105 callgsubr
        </CharString>
        <CharString name="acircumflex">
          -13 2 0 97 -12 callsubr
        </CharString>
        <CharString name="acute">
          -128 -7 callgsubr
          181 530 -105 callgsubr
        </CharString>
        <CharString name="acute.cap">
          -128 799 -49 callgsubr
          hstem
          181 798 -105 callgsubr
        </CharString>
        <CharString name="adieresis">
          -13 -1 0 97 200 endchar
        </CharString>
        <CharString name="ae">
          276 -12 68 190 52 83 63 -54 54 hstemhm
          311 100 hintmask 11101000
          688 -71 callsubr
          -76 -60 -27 -45 -41 hvcurveto
          -29 41 -51 27 -85 4 rrcurveto
          2 -132 -3 -37 -22 8 -17 11 hvcurveto
          25 30 16 44 hhcurveto
          68 51 -47 callgsubr
          -74 callsubr
          81 72 38 37 42 hvcurveto
          -50 43 65 -25 57 hhcurveto
          -97 callsubr
          -546 -97 -39 callgsubr
          1 -4 -1 -7 -8 vvcurveto
          -17 0 -44 -1 -16 vhcurveto
          -71 callgsubr
          286 146 rmoveto
          hintmask 11011000
          -33 callsubr
        </CharString>
        <CharString name="agrave">
          -13 57 0 97 -5 callgsubr
        </CharString>
        <CharString name="ampersand">
          357 -12 92 560 72 213 73 hstemhm
          82 92 -67 90 -43 69 241 74 111 80 -25 90 hintmask 1111001010000000
          579 925 rmoveto
          87 38 -51 -66 -98 -79 -52 -60 -60 hvcurveto
          -58 -59 -43 -35 -56 vvcurveto
          -74 50 -16 48 -14 vhcurveto
          hintmask 1111001100000000
          43 -13 44 -12 -60 vvcurveto
          -122 -153 -57 -84 -185 -53 104 97 vhcurveto
          1 41 9 13 23 42 rrcurveto
          hintmask 1110011100000000
          12 23 4 15 15 vvcurveto
          hintmask 1110101100000000
          47 -26 20 36 vvcurveto
          78 76 29 84 29 34 -14 0 vhcurveto
          7 24 27 16 32 -71 11 -34 -178 -61 -117 -72 hvcurveto
          hintmask 1110011100000000
          -64 47 -16 -37 vvcurveto
          hintmask 1111001100000000
          -51 -72 -28 -92 vvcurveto
          -224 241 -23 71 110 91 38 84 76 vhcurveto
          32 35 26 49 61 179 -191 -64 70 vvcurveto
          hintmask 1111001010000000
          118 256 57 202 vvcurveto
          116 -78 65 -91 -20 -18 -3 -7 -18 vhcurveto
          0 -18 -64 28 1 vhcurveto
          endchar
        </CharString>
        <CharString name="approxequal">
          118 161 76 -56 -21 58 76 49 76 -19 76 1 -20 hstemhm
          hintmask 10010100
          380 161 rmoveto
          -42 callsubr
          hintmask 01110100
          -43 callgsubr
          182 vmoveto
          -42 callsubr
          hintmask 10001000
          -43 callgsubr
          endchar
        </CharString>
        <CharString name="aring">
          -31 callsubr
          51 54 118 51 hstemhm
          119 62 107 60 -37 91 hintmask 10100001
          -81 callgsubr
          hintmask 01100001
          -101 callsubr
          hintmask 10100001
          -71 callgsubr
          hintmask 00011110
          206 462 -91 callgsubr
        </CharString>
        <CharString name="asciicircum">
          70 712 -20 hstem
          276 634 rmoveto
          7 24 -47 -27 18 hvcurveto
          109 -182 7 -12 10 -4 9 1 rlinecurve
          14 2 35 17 -3 23 -2 10 -8 15 -10 15 -43 67 -45 74 -65 82 rrcurveto
          16 -12 -24 28 -21 hhcurveto
          -21 -24 -28 -16 -12 hvcurveto
          -65 -82 -46 -74 -43 -67 -10 -15 -8 -15 -2 -10 -3 -23 35 -17 14 -2 9 -1 10 4 7 12 110 182 rcurveline
          27 18 24 47 7 hhcurveto
          endchar
        </CharString>
        <CharString name="asciitilde">
          74 221 76 -56 -21 58 76 1 -20 hstemhm
          hintmask 10010000
          358 221 rmoveto
          -42 callsubr
          hintmask 01100000
          -54 callgsubr
          hintmask 10010000
          56 40 -57 75 hhcurveto
          endchar
        </CharString>
        <CharString name="asterisk">
          11 367 -21 366 -20 hstem
          188 502 rmoveto
          -41 -39 -47 -55 -13 vvcurveto
          -15 40 -29 16 16 46 74 40 20 vhcurveto
          0 3 3 2 2 52 -93 -15 9 vhcurveto
          -7 5 8 -7 7 hhcurveto
          21 35 34 11 15 -57 64 -28 32 hvcurveto
          1 -1 0 1 -1 hhcurveto
          4 2 117 28 -2 -1 rrcurveto
          11 5 6 5 11 vvcurveto
          41 -22 18 -10 vhcurveto
          -16 -90 -51 -17 hhcurveto
          -3 -2 1 4 1 0 2 1 2 hvcurveto
          8 31 4 52 2 27 rrcurveto
          6 vlineto
          18 -1 -9 6 -30 hhcurveto
          -34 -9 -7 -18 hvcurveto
          -30 6 -67 -23 vvcurveto
          -3 0 -2 -2 -11 -93 50 2 -7 vhcurveto
          1 -3 -3 0 -3 hhcurveto
          -11 -21 -20 -41 -24 135 -26 0 hvcurveto
          endchar
        </CharString>
        <CharString name="at">
          506 -182 61 780 53 hstem
          66 98 109 84 478 86 vstem
          577 61 rmoveto
          165 7 179 172 199 vvcurveto
          171 -112 102 -197 -268 -278 -227 -296 -228 132 -143 229 179 142 96 26 13 -19 17 -13 -5 -3 -1 -2 -3 vhcurveto
          -34 -43 -87 -54 -128 hhcurveto
          -187 -96 124 166 229 170 261 268 150 83 -90 -143 -123 -88 -148 -110 -32 hvcurveto
          20 78 15 71 14 81 rrcurveto
          3 18 6 27 19 vvcurveto
          14 -9 7 -14 -25 -29 -51 -16 -12 vhcurveto
          -46 -62 -42 -57 -51 -58 rrcurveto
          -15 -13 -42 -49 -27 hhcurveto
          -20 -8 16 21 57 38 72 31 35 hvcurveto
          67 76 81 30 107 11 rrcurveto
          4 9 1 7 5 vvcurveto
          21 -1 -26 3 -31 hhcurveto
          -190 -165 -161 -181 -55 30 -35 44 45 35 35 18 18 hvcurveto
          58 56 77 109 16 1 -19 -64 -22 -81 -1 -72 rrcurveto
          -1 8 7 -1 8 hhcurveto
          endchar
        </CharString>
        <CharString name="atilde">
          -31 callsubr
          78 -35 callsubr
          311 91 hintmask 10100010
          -81 callgsubr
          hintmask 01100010
          -101 callsubr
          hintmask 10100010
          -71 callgsubr
          hintmask 00001100
          23 493 -64 callgsubr
        </CharString>
        <CharString name="b">
          70 -12 58 -25 -21 379 65 293 -20 hstemhm
          78 97 236 96 hintmask 01111100
          168 732 rmoveto
          4 -3 -10 1 -11 hhcurveto
          -52 -12 1 -22 hvcurveto
          -29 -2 -26 -29 -109 0 -99 -136 -52 -1 -80 -62 vvcurveto
          -77 0 -17 22 vhcurveto
          15 17 40 10 hhcurveto
          9 12 -12 -5 8 hvcurveto
          hintmask 10111100
          -20 31 30 -15 48 hhcurveto
          103 58 53 36 22 hvcurveto
          26 42 19 54 60 vvcurveto
          55 -7 56 -33 42 vhcurveto
          36 -28 -60 22 -50 hhcurveto
          -53 -66 -27 -17 -33 hvcurveto
          -2 32 0 74 47 29 0 95 23 vvcurveto
          12 -1 12 -6 8 vhcurveto
          75 -359 rmoveto
          4 18 18 2 19 hhcurveto
          93 20 -78 -85 -100 -55 -70 -92 -38 -50 12 26 hvcurveto
          27 1 172 54 vvcurveto
          19 33 10 33 7 vhcurveto
          endchar
        </CharString>
        <CharString name="backslash">
          -95 -70 -21 852 -20 hstem
          144 348 rmoveto
          -183 57 79 -256 22 hhcurveto
          20 40 17 4 1 hvcurveto
          3 8 -104 321 -32 107 rrcurveto
          149 -44 -81 246 -23 hhcurveto
          -31 -29 -10 -18 -29 50 -123 72 -233 hvcurveto
          endchar
        </CharString>
        <CharString name="bar">
          -195 -6 callgsubr
          101 86 vstem
          105 736 -69 callgsubr
          -2 -281 1 -41 rrcurveto
          -203 vlineto
          -31 1 -166 -45 callsubr
          5 -1 39 37 7 9 19 vhcurveto
          955 vlineto
          7 0 6 -9 3 vhcurveto
          2 -7 -12 -1 -22 hhcurveto
          -16 -14 0 -2 -2 hvcurveto
          endchar
        </CharString>
        <CharString name="braceleft">
          -66 -3 callgsubr
          122 99 -82 97 cntrmask 11100000
          hintmask 11101000
          139 144 rmoveto
          hintmask 11110000
          -58 -17 -89 -51 vvcurveto
          -159 77 -49 103 37 32 9 21 13 -5 22 -13 10 vhcurveto
          0 -27 -8 -23 -39 -43 26 85 vhcurveto
          hintmask 11101000
          42 15 85 56 vvcurveto
          57 -26 61 -52 21 vhcurveto
          50 30 28 51 58 vvcurveto
          hintmask 11110000
          56 -15 85 42 vvcurveto
          85 43 26 39 23 27 -8 0 vhcurveto
          13 10 5 22 13 vvcurveto
          21 -32 9 -37 -103 -77 -49 -159 vhcurveto
          hintmask 11101000
          -51 17 -89 -58 vvcurveto
          -34 -15 -23 -36 -1 vhcurveto
          -30 hlineto
          -5 -3 -2 -4 -2 hvcurveto
          -6 -6 4 -13 -8 vvcurveto
          -11 -5 -15 7 -7 vhcurveto
          -4 2 3 -2 5 hhcurveto
          27 hlineto
          38 16 -23 -35 hvcurveto
          endchar
        </CharString>
        <CharString name="braceright">
          -55 -3 callgsubr
          179 97 -82 99 cntrmask 11100000
          hintmask 11110000
          276 332 rmoveto
          hintmask 11101000
          58 17 89 51 vvcurveto
          159 -77 49 -103 -37 -32 -9 -21 -13 5 -22 13 -10 vhcurveto
          0 27 8 23 39 43 -26 -85 vhcurveto
          hintmask 11110000
          -42 -15 -85 -56 vvcurveto
          -57 26 -61 52 -21 vhcurveto
          -50 -30 -28 -51 -58 vvcurveto
          hintmask 11101000
          -56 15 -85 -42 vvcurveto
          -85 -43 -26 -39 -23 -27 8 0 vhcurveto
          -13 -10 -5 -22 -13 vvcurveto
          -21 32 -9 37 103 77 49 159 vhcurveto
          hintmask 11110000
          51 -17 89 58 vvcurveto
          34 15 23 36 1 vhcurveto
          30 hlineto
          5 3 2 4 2 hvcurveto
          6 6 -4 13 8 vvcurveto
          11 5 15 -7 7 vhcurveto
          4 -2 -3 2 -5 hhcurveto
          -27 hlineto
          -38 -16 23 35 hvcurveto
          endchar
        </CharString>
        <CharString name="bracketleft">
          -105 -241 -21 925 75 hstem
          93 93 vstem
          186 663 rmoveto
          13 20 0 23 hhcurveto
          27 26 1 1 25 hvcurveto
          7 3 8 10 18 6 37 -22 hvcurveto
          -51 -57 0 -81 hhcurveto
          -28 -4 -13 -53 hvcurveto
          -69 -5 -469 -111 vvcurveto
          -72 1 -88 1 -36 -40 callsubr
          41 1 21 61 25 0 58 hhcurveto
          23 -7 47 4 13 -10 7 -13 3 hvcurveto
          3 -15 -40 -1 -11 -23 -22 -1 -13 hhcurveto
          2 58 1 333 67 67 -1 67 60 21 1 156 21 vvcurveto
          endchar
        </CharString>
        <CharString name="bracketright">
          -105 -262 75 925 -20 hstem
          190 93 vstem
          190 -187 rmoveto
          -13 -20 0 -23 hhcurveto
          -27 -26 -1 -1 -25 hvcurveto
          -7 -3 -8 -10 -18 -6 -37 22 hvcurveto
          51 57 0 81 hhcurveto
          28 4 13 53 hvcurveto
          69 5 431 111 vvcurveto
          72 -1 126 -1 36 vhcurveto
          -1 27 0 47 -7 7 rrcurveto
          9 -10 -41 -1 -21 -61 -25 0 -58 hhcurveto
          -23 7 -47 -4 -13 10 -7 13 -3 hvcurveto
          -3 15 40 1 11 23 22 1 13 hhcurveto
          -2 -58 -1 -371 -67 -67 1 -67 -60 -21 -1 -118 -21 vvcurveto
          endchar
        </CharString>
        <CharString name="breve">
          -7 502 83 75 -20 hstem
          237 585 rmoveto
          -64 -40 39 25 -10 hvcurveto
          10 -4 -15 1 -9 hhcurveto
          -13 -5 -7 -4 hvcurveto
          -49 2 47 -98 111 hhcurveto
          112 46 98 49 2 hvcurveto
          4 -5 7 -13 -9 -15 -1 -10 -4 vhcurveto
          -25 -10 -35 -39 -69 hhcurveto
          endchar
        </CharString>
        <CharString name="brokenbar">
          -194 100 87 vstem
          187 -68 rmoveto
          31 -1 126 31 9 2 13 11 vvcurveto
          21 -16 1 -28 -43 -1 -14 -51 vhcurveto
          -355 vlineto
          -19 2 2 48 16 14 0 2 2 vhcurveto
          6 12 -2 21 15 vvcurveto
          36 0 70 1 38 vhcurveto
          -87 612 rmoveto
          -31 1 -126 -45 callsubr
          5 -1 39 27 18 4 61 -1 vhcurveto
          -1 46 1 121 21 vvcurveto
          167 vlineto
          19 -2 -39 callsubr
          -50 callgsubr
          0 -70 -1 -38 vhcurveto
          endchar
        </CharString>
        <CharString name="bullet">
          -18 216 -21 275 -20 hstem
          211 466 rmoveto
          -62 -8 -61 -59 -61 vvcurveto
          -110 111 -33 21 88 67 61 92 74 -41 48 -76 -12 -20 -2 -2 -15 vhcurveto
          endchar
        </CharString>
        <CharString name="c">
          -12 -12 66 324 62 hstem
          44 99 vstem
          419 69 rmoveto
          -52 callsubr
          -100 68 -119 176 -20 callgsubr
          endchar
        </CharString>
        <CharString name="caron">
          -17 523 -21 hstem
          232 588 -100 callgsubr
        </CharString>
        <CharString name="caron.cap">
          -17 791 -21 hstem
          232 856 -100 callgsubr
        </CharString>
        <CharString name="ccedilla">
          -12 -262 47 224 -21 390 62 hstem
          44 99 132 89 vstem
          364 -19 callsubr
          13 18 20 8 17 vhcurveto
          -1 6 6 0 6 hhcurveto
          -20 callgsubr
          -52 callsubr
          -86 49 -99 124 -27 hvcurveto
          -21 -28 -19 -47 -8 -72 callsubr
        </CharString>
        <CharString name="cedilla">
          -107 -262 47 hstem
          208 89 vstem
          297 -19 callsubr
          20 42 36 -14 15 vhcurveto
          -12 12 -21 -5 -9 -8 rrcurveto
          -25 -22 -28 -66 -9 -72 callsubr
        </CharString>
        <CharString name="cent">
          -12 9 -21 hstem
          55 101 vstem
          430 69 rmoveto
          -24 -29 -13 -31 hhcurveto
          -14 -13 1 1 -13 hvcurveto
          6 51 5 51 5 40 5 37 8 72 7 68 rrcurveto
          2 20 21 1 22 hhcurveto
          27 11 0 31 26 -55 6 -40 1 hvcurveto
          5 55 4 44 -2 3 -5 6 -35 6 -11 -6 -7 -4 -8 -46 -9 -62 rrcurveto
          -132 -18 -93 -88 -125 vvcurveto
          -85 49 -101 123 -27 vhcurveto
          -7 -67 -3 -42 3 -12 3 -14 24 -3 25 5 9 2 8 55 9 68 rrcurveto
          1 hlineto
          -20 callgsubr
          -178 131 rmoveto
          -6 -45 -5 -40 -4 -37 rrcurveto
          -53 27 -28 49 66 vvcurveto
          82 47 42 68 20 vhcurveto
          -7 -54 -6 -59 -6 -51 rrcurveto
          endchar
        </CharString>
        <CharString name="circumflex">
          -17 658 -20 hstem
          232 572 -87 callgsubr
        </CharString>
        <CharString name="circumflex.cap">
          -17 926 -20 hstem
          232 840 -87 callgsubr
        </CharString>
        <CharString name="colon">
          -165 -12 144 0 167 146 -20 hstemhm
          77 161 -153 153 hintmask 10101000
          148 127 rmoveto
          -37 -5 -26 -29 -36 vvcurveto
          -48 30 -21 39 50 34 24 59 36 -10 25 -53 -9 -9 -1 -4 -9 vhcurveto
          3 316 rmoveto
          hintmask 01110000
          -86 callgsubr
        </CharString>
        <CharString name="comma">
          -69 callsubr
        </CharString>
        <CharString name="commaaccent">
          -160 -334 -21 310 -20 hstemhm
          77 -34 callgsubr
          hintmask 11100000
          154 -355 -86 callsubr
        </CharString>
        <CharString name="copyright">
          375 -12 60 80 61 463 60 hstem
          66 66 83 78 431 -80 callsubr
          435 188 rmoveto
          13 -70 21 -36 -139 -107 -100 -133 -144 135 -64 100 -3 vhcurveto
          68 3 64 29 20 vvcurveto
          11 -3 13 -10 3 vhcurveto
          -13 -1 -11 -4 -13 -3 -19 -5 -29 -4 -23 -1 rrcurveto
          -115 9 -53 78 79 vvcurveto
          2 93 69 43 26 11 rrcurveto
          10 23 30 3 25 hhcurveto
          16 16 -3 -3 15 hvcurveto
          3 7 -3 -2 7 hvcurveto
          -2 8 6 -1 3 hhcurveto
          5 1 13 24 12 vvcurveto
          endchar
        </CharString>
        <CharString name="currency">
          196 130 70 295 65 hstem
          128 85 270 84 vstem
          567 355 rmoveto
          54 -14 40 -21 30 vhcurveto
          48 49 31 37 -18 18 -12 12 -11 14 -10 -2 rrcurveto
          -10 -7 -10 -4 -4 hvcurveto
          -14 -13 -23 -23 -26 -26 rrcurveto
          22 -36 -40 7 -29 hhcurveto
          -64 -53 -14 -27 -40 hvcurveto
          -32 31 -27 27 -16 16 -12 callgsubr
          -20 -19 39 -44 56 -56 rrcurveto
          -21 -33 -11 -42 -50 vvcurveto
          -47 13 -41 22 -33 vhcurveto
          -28 -28 -26 -27 -20 -20 -19 -19 6 -11 22 -22 21 -20 19 15 25 25 4 4 23 22 27 28 rrcurveto
          -23 34 42 -12 46 hhcurveto
          45 42 12 21 35 hvcurveto
          27 -28 21 -21 5 -4 -11 callgsubr
          -19 20 -24 23 -27 27 rrcurveto
          31 38 18 49 56 vvcurveto
          -84 -7 rmoveto
          -77 -51 -71 -91 -66 -62 50 105 89 62 51 83 80 45 -66 -81 vhcurveto
          endchar
        </CharString>
        <CharString name="d">
          87 -12 69 -37 -21 380 65 293 -20 hstemhm
          44 99 258 90 hintmask 01111100
          403 37 rmoveto
          2 -11 0 -19 3 -5 rrcurveto
          -3 9 22 0 16 hhcurveto
          39 -4 26 41 1 hvcurveto
          190 vlineto
          157 -1 171 71 vvcurveto
          54 3 28 -43 -59 14 -23 -54 -4 vhcurveto
          -2 -28 0 -97 -15 vvcurveto
          -53 vlineto
          -19 -1 -13 -12 vvcurveto
          9 -34 -32 12 -36 hhcurveto
          -54 -53 -15 -23 -33 hvcurveto
          -66 -41 -46 -57 -101 vvcurveto
          hintmask 10111100
          -121 82 -98 126 55 73 32 17 23 vhcurveto
          -260 192 rmoveto
          86 3 59 64 92 hhcurveto
          34 54 -7 -14 9 hvcurveto
          7 -8 -1 -51 -14 vvcurveto
          -2 -30 2 -132 -23 vvcurveto
          -16 -23 -27 -78 -96 -60 64 108 vhcurveto
          endchar
        </CharString>
        <CharString name="dagger">
          169 -241 -21 612 -2 callsubr
          -77 42 hintmask 11110000
          270 -226 rmoveto
          -2 0 -2 -2 vvcurveto
          2 callsubr
          vhcurveto
          3 -1 2 3 vvcurveto
          hintmask 11101000
          -4 35 -20 451 -10 113 rrcurveto
          -22 callsubr
          -2 -2 0 -2 hhcurveto
          3 callgsubr
          hintmask 11110000
          -22 callgsubr
          -2 0 -2 -2 vvcurveto
          -17 callsubr
          -2 -2 0 -2 hhcurveto
          3 callsubr
          hvcurveto
          hintmask 11101000
          14 133 20 11 64 hvcurveto
          hintmask 11110000
          -11 -113 -20 -467 -2 -27 rrcurveto
          endchar
        </CharString>
        <CharString name="daggerdbl">
          169 -241 -21 255 109 248 -2 callsubr
          -87 62 hintmask 11110100
          345 71 rmoveto
          0 10 93 62 vvcurveto
          52 -10 103 0 vhcurveto
          -22 callsubr
          -6 hlineto
          3 callgsubr
          hintmask 11111000
          -22 callgsubr
          -6 vlineto
          -17 callsubr
          -6 hlineto
          3 callsubr
          14 133 20 11 64 hvcurveto
          hintmask 11110100
          0 -10 -103 -52 vvcurveto
          -62 10 -93 0 vhcurveto
          11 -64 -133 20 -14 hhcurveto
          -32 -5 -24 -34 -34 5 -17 25 hvcurveto
          6 hlineto
          25 3 125 18 61 11 rrcurveto
          hintmask 11111000
          -11 -69 -19 -156 -2 -26 rrcurveto
          -6 vlineto
          2 callsubr
          -9 -20 182 -13 78 vhcurveto
          61 -10 126 -19 25 -3 rrcurveto
          6 hlineto
          25 5 17 34 34 -5 24 -31 -17 -134 -20 -11 -63 hvcurveto
          endchar
        </CharString>
        <CharString name="degree">
          -36 384 64 203 61 hstem
          55 75 186 74 vstem
          390 555 rmoveto
          127 -100 30 -54 -113 -68 -58 -111 -94 70 -65 92 95 78 70 101 vhcurveto
          -74 -5 rmoveto
          -54 -34 -48 -62 -46 -44 34 73 62 44 34 57 56 29 -44 -57 vhcurveto
          endchar
        </CharString>
        <CharString name="dieresis">
          -11 517 -10 callgsubr
          625 -106 callsubr
        </CharString>
        <CharString name="dieresis.cap">
          -11 785 -10 callgsubr
          893 -106 callsubr
        </CharString>
        <CharString name="divide">
          99 94 -21 217 75 0 73 146 -20 hstemhm
          211 162 hintmask 11011000
          73 361 -95 callsubr
          212 221 rmoveto
          -60 callsubr
          hintmask 10111000
          -98 callsubr
          -365 vmoveto
          -86 callgsubr
        </CharString>
        <CharString name="dollar">
          6 -13 callgsubr
          hstemhm
          72 98 8 73 -43 70 44 99 hintmask 11101100
          -61 callsubr
          -8 -7 -1 -8 hhcurveto
          1 62 -1 45 -1 3 -2 4 -41 5 -13 -5 -6 -4 -4 -51 -3 -74 rrcurveto
          -78 -27 -58 -60 -78 -77 callsubr
          hintmask 11110100
          18 17 1 2 16 hvcurveto
          -1 -80 -2 -48 3 -16 4 -19 33 -2 20 10 8 5 5 70 3 92 60 16 39 29 25 30 rrcurveto
          -53 callgsubr
          endchar
        </CharString>
        <CharString name="dotaccent">
          -62 callgsubr
        </CharString>
        <CharString name="dotaccentcmb">
          -62 callgsubr
        </CharString>
        <CharString name="dotlessi">
          -23 callgsubr
          hstem
          81 91 vstem
          -103 callsubr
          endchar
        </CharString>
        <CharString name="e">
          -15 callgsubr
          hstem
          44 99 vstem
          -99 callgsubr
          endchar
        </CharString>
        <CharString name="eacute">
          -15 callgsubr
          87 -46 callsubr
          44 99 hintmask 11100100
          -99 callgsubr
          hintmask 00011000
          114 234 -105 callgsubr
        </CharString>
        <CharString name="ecircumflex">
          19 38 0 101 -12 callsubr
        </CharString>
        <CharString name="edieresis">
          -15 callgsubr
          73 6 callgsubr
          44 99 -31 -30 callsubr
          hintmask 11101000
          -99 callgsubr
          hintmask 00010110
          -1 329 -106 callsubr
        </CharString>
        <CharString name="egrave">
          19 83 0 101 -5 callgsubr
        </CharString>
        <CharString name="eight">
          49 -12 67 594 63 hstemhm
          66 86 -70 90 197 76 -62 81 hintmask 11100100
          66 160 rmoveto
          -104 81 -68 109 118 90 83 115 vhcurveto
          -2 104 -74 55 -39 27 rrcurveto
          -11 7 -8 3 1 vvcurveto
          hintmask 11011000
          61 37 54 63 79 vvcurveto
          100 -78 50 -99 vhcurveto
          -86 -2 -100 -63 -106 vvcurveto
          15 -101 42 -40 52 -38 rrcurveto
          hintmask 11100100
          -69 -47 -56 -57 -98 vvcurveto
          177 164 rmoveto
          65 -35 75 -57 -73 vvcurveto
          -58 -53 -46 -65 -66 -45 44 84 -2 vhcurveto
          2 57 28 33 33 29 rrcurveto
          65 117 rmoveto
          -17 3 -55 47 -19 29 rrcurveto
          hintmask 11011000
          -10 16 -7 23 23 vvcurveto
          60 48 29 58 60 31 -43 -54 -60 -48 -38 -41 -35 vhcurveto
          endchar
        </CharString>
        <CharString name="ellipsis">
          399 -14 146 hstem
          66 162 131 162 131 162 cntrmask 01110000
          140 130 rmoveto
          -100 callsubr
          293 hmoveto
          -100 callsubr
          293 hmoveto
          -86 callgsubr
        </CharString>
        <CharString name="emdash">
          542 -45 callgsubr
          747 -66 callsubr
          -742 -63 callgsubr
        </CharString>
        <CharString name="endash">
          92 -45 callgsubr
          297 -66 callsubr
          -292 -63 callgsubr
        </CharString>
        <CharString name="equal">
          124 192 76 116 75 hstem
          98 192 rmoveto
          7 20 0 20 62 7 3 34 -3 102 -1 103 -28 callgsubr
          -58 -66 3 -77 hhcurveto
          -68 -126 0 -10 -6 hvcurveto
          -27 callgsubr
          -11 263 -95 callsubr
          endchar
        </CharString>
        <CharString name="eth">
          88 -13 callsubr
          278 -20 hstem
          44 98 275 97 vstem
          170 555 -8 callsubr
          16 -30 21 20 95 52 rrcurveto
          1 1 1 1 1 hvcurveto
          32 -46 26 -50 17 -53 rrcurveto
          15 -30 -40 13 -47 hhcurveto
          -127 -105 -81 -153 -132 96 -90 127 159 88 104 179 122 -49 120 -73 94 hvcurveto
          17 9 14 9 8 5 -27 callsubr
          -22 23 -23 20 -24 17 rrcurveto
          2 -3 -5 1 -3 hhcurveto
          -18 -28 -29 -14 -3 1 -3 2 -2 hvcurveto
          18 -16 17 -17 17 -19 -39 -21 -34 -19 -12 -7 -7 callsubr
          -28 -329 rmoveto
          95 69 54 75 50 44 -20 -22 33 vhcurveto
          2 -18 2 -19 -18 vvcurveto
          -162 -62 -54 -78 -70 -65 53 111 vhcurveto
          endchar
        </CharString>
        <CharString name="exclam">
          -187 -13 callgsubr
          hstemhm
          66 162 -143 125 hintmask 11010000
          118 263 rmoveto
          -18 2 9 -20 13 hhcurveto
          10 8 11 10 3 hvcurveto
          4 14 37 218 6 156 rrcurveto
          57 -25 21 -31 -39 -30 -20 -51 -83 22 -174 11 -121 vhcurveto
          22 -131 rmoveto
          hintmask 11100000
          -86 callgsubr
        </CharString>
        <CharString name="exclamdown">
          -187 -259 -21 724 -20 hstemhm
          66 162 -144 125 hintmask 11010000
          176 169 rmoveto
          18 -2 -9 20 -13 hhcurveto
          -10 -8 -11 -10 -3 hvcurveto
          -4 -14 -37 -218 -6 -156 rrcurveto
          -57 25 -21 31 39 30 20 51 83 -22 174 -11 121 vhcurveto
          -22 131 rmoveto
          hintmask 11100000
          -16 callsubr
          -9 callsubr
        </CharString>
        <CharString name="f">
          -122 17 -21 367 68 232 65 hstemhm
          113 96 -90 90 hintmask 11101000
          213 433 rmoveto
          24 -4 84 20 vvcurveto
          66 17 36 62 28 26 -17 -1 13 5 callgsubr
          -49 11 -51 -145 -12 -99 -135 -17 1 -45 0 vhcurveto
          -37 callgsubr
          -2 -16 0 -16 -15 -15 0 -14 -15 vvcurveto
          hintmask 11110000
          -90 -2 -80 -82 -11 callsubr
          59 57 vvcurveto
          56 1 54 -52 callgsubr
          endchar
        </CharString>
        <CharString name="five">
          -28 -38 62 582 94 hstem
          289 98 vstem
          150 606 rmoveto
          50 42 0 73 hhcurveto
          35 13 26 47 17 -55 4 -68 -47 -59 -3 -2 -21 hvcurveto
          -23 -3 1 -15 -1 -9 -10 -77 -1 -31 -8 -91 rrcurveto
          -13 -3 -25 -16 vvcurveto
          -39 29 10 20 -1 vhcurveto
          92 -6 80 -65 -100 vvcurveto
          -105 -111 -86 -112 1 vhcurveto
          -42 12 -20 26 142 141 133 136 125 -93 57 -71 21 vhcurveto
          -20 6 -63 6 -5 5 rrcurveto
          2 1 14 7 vvcurveto
          7 60 -4 -6 7 56 1 9 0 6 3 7 rrcurveto
          endchar
        </CharString>
        <CharString name="florin">
          -122 -262 65 559 68 217 65 hstemhm
          115 95 -89 89 hintmask 11101000
          211 -59 rmoveto
          51 -1 164 57 vvcurveto
          56 1 52 -52 callgsubr
          23 0 71 20 vvcurveto
          66 3 36 62 33 8 -19 1 16 5 callgsubr
          -39 11 -51 -145 0 -99 -135 vhcurveto
          -1 -48 rlineto
          -37 callgsubr
          hintmask 11110000
          -2 -16 0 -14 -15 -15 0 -14 -15 -90 -2 -195 -82 vvcurveto
          -66 -3 -36 -62 -33 -8 19 -1 -16 vhcurveto
          -15 -9 -6 -22 -12 vvcurveto
          -29 39 -11 51 145 6 103 100 vhcurveto
          endchar
        </CharString>
        <CharString name="foundryicon">
          387 2 -21 739 -20 hstem
          66 183 370 183 vstem
          636 41 rmoveto
          -2 2 rlineto
          0 -12 -1 -7 -61 -52 25 57 58 57 239 2 10 vhcurveto
          11 6 72 15 22 hhcurveto
          9 8 -3 -9 hvcurveto
          -13 -59 -225 -56 vvcurveto
          -32 17 -19 31 61 74 117 133 205 -164 165 -205 -75 -68 -23 -37 -58 vhcurveto
          2 -3 rlineto
          0 12 2 7 61 52 -25 -57 -58 -57 -239 -2 -10 vhcurveto
          -11 -6 -72 -15 -22 hhcurveto
          -9 -8 3 8 hvcurveto
          14 59 225 56 vvcurveto
          32 -17 19 -31 -61 -74 -117 -133 -205 164 -165 203 74 70 23 37 59 vhcurveto
          -174 183 rmoveto
          -15 -19 -58 -10 -20 hhcurveto
          -10 -6 3 7 19 53 229 4 20 hvcurveto
          15 19 58 9 20 hhcurveto
          10 6 -2 -7 -19 -53 -229 -4 -20 hvcurveto
          endchar
        </CharString>
        <CharString name="four">
          38 21 -21 314 64 337 -20 hstemhm
          294 85 -85 93 hintmask 11110000
          387 696 rmoveto
          17 2 -27 2 -13 hhcurveto
          -43 -114 -136 -37 -32 hvcurveto
          -44 -50 -35 -34 -42 -49 rrcurveto
          -11 -13 -27 -25 -10 vvcurveto
          1 -12 26 -29 13 -3 rrcurveto
          -2 8 8 -1 10 47 49 -1 47 hhcurveto
          28 28 0 -2 27 hvcurveto
          -9 1 -7 -9 vvcurveto
          -36 -4 -134 2 -36 vhcurveto
          0 -1 -69 6 -6 vhcurveto
          -4 4 10 -1 12 hhcurveto
          38 15 2 47 3 hvcurveto
          2 30 2 74 40 31 -1 40 40 vvcurveto
          12 61 -11 14 8 vhcurveto
          7 4 0 29 15 vvcurveto
          15 -15 2 -18 vhcurveto
          -8 -9 0 -7 hhcurveto
          -10 -9 1 4 -3 hvcurveto
          hintmask 11101000
          1 109 1 86 118 vvcurveto
          -199 -317 rmoveto
          -9 -72 0 2 -9 hvcurveto
          13 23 21 22 18 21 22 26 27 30 23 23 27 27 24 30 25 31 rrcurveto
          1 0 -1 -1 hvcurveto
          -1 -18 -2 -25 -22 -23 0 -25 -23 vvcurveto
          -1 -87 rlineto
          -8 -5 -13 -4 -15 -26 -33 2 -15 hhcurveto
          endchar
        </CharString>
        <CharString name="fraction">
          33 -13 callgsubr
          hstem
          208 -102 callgsubr
          endchar
        </CharString>
        <CharString name="g">
          31 -260 54 169 88 102 59 184 48 5 -20 hstemhm
          44 79 -64 85 -74 96 240 98 hintmask 1111000110000000
          166 300 rmoveto
          60 32 36 51 43 32 -27 -59 -60 -27 -38 -52 -48 -31 27 61 vhcurveto
          99 -506 rmoveto
          hintmask 1110110010000000
          -91 3 -51 30 67 vvcurveto
          22 4 55 27 2 28 -7 -1 36 vhcurveto
          113 -2 73 2 -69 vvcurveto
          -67 -57 -33 -84 vhcurveto
          133 557 rmoveto
          13 33 39 1 18 hhcurveto
          16 7 4 19 25 -8 36 -21 -31 -46 -22 -22 -32 hvcurveto
          hintmask 1111000110000000
          32 -27 -53 7 -35 hhcurveto
          -107 -81 -59 -90 -74 39 -31 26 -21 hvcurveto
          hintmask 1111001010000000
          -26 -22 -50 -11 -67 vvcurveto
          -38 21 -23 23 -20 vhcurveto
          hintmask 1111010010000000
          -26 -18 -33 -44 -53 vvcurveto
          -107 124 -26 88 116 132 63 110 142 -152 -7 -118 3 vhcurveto
          hintmask 1111001010000000
          -39 1 -51 -1 48 vvcurveto
          56 50 -4 33 2 vhcurveto
          63 3 50 30 15 16 rrcurveto
          33 36 14 39 43 vvcurveto
          10 -3 15 -1 6 vhcurveto
          endchar
        </CharString>
        <CharString name="germandbls">
          72 -12 57 -27 -21 650 65 hstemhm
          79 96 104 85 13 96 -69 105 hintmask 01111100
          79 316 rmoveto
          -108 -2 -92 -95 -11 callsubr
          58 57 48 2 47 37 6 0 6 6 vvcurveto
          -3 153 rlineto
          77 46 54 63 57 38 -27 -70 vhcurveto
          -106 -98 -14 -105 vvcurveto
          hintmask 10111010
          -104 125 -8 -73 vvcurveto
          -75 -62 -20 -25 callsubr
          114 50 117 vhcurveto
          111 -145 17 74 vvcurveto
          hintmask 10111100
          65 109 46 104 vvcurveto
          79 -73 61 -104 -136 -77 -99 -135 vhcurveto
          endchar
        </CharString>
        <CharString name="grave">
          -128 -7 callgsubr
          172 530 -55 callgsubr
        </CharString>
        <CharString name="grave.cap">
          -128 799 -49 callgsubr
          hstem
          172 798 -55 callgsubr
        </CharString>
        <CharString name="greater">
          96 522 327 rmoveto
          14 -2 25 -17 10 vhcurveto
          -27 16 -38 21 -59 27 -55 25 -63 32 -33 14 -21 11 -57 26 -17 8 -34 16 -23 6 -11 -26 -13 -28 -3 -15 24 -11 136 -64 rcurveline
          33 -15 34 -16 34 -15 22 -10 38 -15 34 -14 rrcurveto
          21 -9 19 -5 -7 vvcurveto
          -7 -18 -4 -29 -14 vhcurveto
          -63 -29 -113 -47 -148 -67 -24 -11 3 -17 13 -28 11 -26 23 6 34 16 17 8 57 26 21 11 33 14 63 28 55 25 59 27 38 25 27 16 rrcurveto
          17 10 2 23 14 vvcurveto
          endchar
        </CharString>
        <CharString name="guillemotleft">
          38 -76 callgsubr
          191 hmoveto
          -92 callsubr
          endchar
        </CharString>
        <CharString name="guillemotright">
          38 -14 callsubr
          358 219 rmoveto
          -92 callgsubr
          -191 hmoveto
          -92 callgsubr
          endchar
        </CharString>
        <CharString name="guilsinglleft">
          -153 -76 callgsubr
          endchar
        </CharString>
        <CharString name="guilsinglright">
          -153 -14 callsubr
          167 219 rmoveto
          -92 callgsubr
          endchar
        </CharString>
        <CharString name="h">
          82 19 -21 377 69 294 -20 hstem
          82 96 219 96 vstem
          177 403 rmoveto
          1 54 -4 110 4 123 rrcurveto
          9 0 11 8 vvcurveto
          -16 callgsubr
          -2 -38 2 -168 -30 -79 callsubr
        </CharString>
        <CharString name="hbar">
          82 19 -21 377 69 94 67 -67 200 hstemhm
          82 94 221 96 hintmask 11101100
          177 403 rmoveto
          30 -1 47 58 vvcurveto
          120 hlineto
          -36 callsubr
          -150 hlineto
          27 1 29 1 29 vhcurveto
          28 vlineto
          hintmask 11011100
          -16 callgsubr
          -1 -5 0 -9 -9 vvcurveto
          -48 -24 callsubr
          0 callgsubr
          -27 19 -1 60 vhcurveto
          -59 1 -67 -18 -79 callsubr
        </CharString>
        <CharString name="hungarumlaut">
          70 -7 callgsubr
          181 530 rmoveto
          -107 callgsubr
          198 hmoveto
          -106 callgsubr
        </CharString>
        <CharString name="hyphen">
          -126 -45 callgsubr
          79 -66 callsubr
          -74 -63 callgsubr
        </CharString>
        <CharString name="i">
          -235 20 -21 678 -20 hstem
          81 91 vstem
          -95 callgsubr
          endchar
        </CharString>
        <CharString name="iacute">
          -23 callgsubr
          118 -46 callsubr
          81 91 hintmask 11001000
          -103 callsubr
          hintmask 00110000
          -25 511 -105 callgsubr
        </CharString>
        <CharString name="icircumflex">
          -235 -109 0 245 -12 callsubr
        </CharString>
        <CharString name="idieresis">
          -23 callgsubr
          104 6 callgsubr
          -35 116 0 91 -7 116 hintmask 11001000
          -103 callsubr
          hintmask 00110100
          -161 606 -106 callsubr
        </CharString>
        <CharString name="igrave">
          -235 -73 0 245 -5 callgsubr
        </CharString>
        <CharString name="ij">
          14 -239 -21 280 -21 433 136 108 -6 callsubr
          81 91 141 115 -102 92 hintmask 01001100
          -95 callgsubr
          hintmask 10110010
          188 655 -54 callsubr
          hintmask 10110001
          -83 callsubr
          endchar
        </CharString>
        <CharString name="infinity">
          299 159 71 -71 86 -66 -21 259 86 -71 71 1 -20 hstemhm
          67 60 526 60 hintmask 10010011
          713 326 rmoveto
          82 3 -55 95 -101 hhcurveto
          -97 -14 -40 -40 -39 -50 rrcurveto
          hintmask 10000111
          54 -34 -57 51 -75 hhcurveto
          -95 -51 -74 -94 -5 hvcurveto
          -82 -3 55 -95 101 hhcurveto
          97 14 40 40 39 50 rrcurveto
          hintmask 00110011
          -58 32 59 -47 75 hhcurveto
          95 51 74 94 5 hvcurveto
          -278 -11 rmoveto
          3 16 47 52 29 18 rrcurveto
          10 16 22 6 21 hhcurveto
          57 26 -45 -55 -3 hvcurveto
          hintmask 10010011
          -57 -3 -42 -30 -52 hhcurveto
          -57 -34 46 39 -30 hvcurveto
          -90 32 rmoveto
          -3 -16 -47 -52 -29 -18 rrcurveto
          hintmask 01001011
          -10 -16 -22 -6 -21 hhcurveto
          -57 -26 45 55 3 hvcurveto
          57 3 42 30 52 hhcurveto
          57 34 -46 -39 30 hvcurveto
          endchar
        </CharString>
        <CharString name="itilde">
          -23 callgsubr
          109 -35 callsubr
          81 91 hintmask 11000100
          -103 callsubr
          hintmask 00011000
          -119 624 -83 callgsubr
        </CharString>
        <CharString name="j">
          -232 -239 -21 692 136 108 -20 hstemhm
          67 115 -102 92 hintmask 11110000
          115 674 -54 callsubr
          hintmask 11101000
          -83 callsubr
          endchar
        </CharString>
        <CharString name="jcircumflex">
          -232 -239 -21 918 -20 hstem
          80 92 vstem
          169 429 rmoveto
          1 -11 -28 2 -17 hhcurveto
          -83 callsubr
          -44 143 -87 callgsubr
        </CharString>
        <CharString name="k">
          6 9 -21 31 -21 740 -20 hstemhm
          81 90 -90 96 hintmask 01101000
          177 289 rmoveto
          hintmask 01110000
          -72 callgsubr
          hintmask 10101000
          -58 callgsubr
          -74 -48 -31 -29 -56 -41 rrcurveto
          endchar
        </CharString>
        <CharString name="kcommaaccent">
          6 -334 -21 310 43 11 -21 750 -20 hstemhm
          81 90 -90 96 -6 -34 callgsubr
          hintmask 11010101
          177 289 rmoveto
          hintmask 11011001
          -72 callgsubr
          hintmask 10110010
          -58 callgsubr
          hintmask 11010101
          -74 -48 -31 -29 -56 -41 rrcurveto
          71 -644 rmoveto
          hintmask 11010010
          -96 callgsubr
          hintmask 11011001
          -94 callgsubr
        </CharString>
        <CharString name="kgreenlandic">
          6 9 -21 31 -21 446 -20 hstemhm
          81 96 hintmask 01110000
          177 259 rmoveto
          2 22 -5 117 1 16 rrcurveto
          16 1 -27 7 -31 hhcurveto
          -23 -6 -1 -28 -4 hvcurveto
          -4 -28 0 -34 -34 vvcurveto
          -73 -2 -102 -1 -73 vhcurveto
          -48 callgsubr
          7 0 vhcurveto
          81 -70 49 -29 74 -74 rrcurveto
          hintmask 10110000
          -57 callsubr
          99 19 22 174 119 40 vvcurveto
          10 -19 17 -15 -13 -32 -26 -11 -11 vhcurveto
          -59 -59 -46 -48 -56 -41 rrcurveto
          endchar
        </CharString>
        <CharString name="l">
          -158 -1 callsubr
          78 96 -82 callsubr
          endchar
        </CharString>
        <CharString name="ldot">
          -53 -1 callsubr
          78 96 86 146 -82 callsubr
          161 -294 -80 callgsubr
        </CharString>
        <CharString name="less">
          96 55 327 rmoveto
          -14 2 -23 17 -10 vhcurveto
          27 -16 38 -25 59 -27 55 -25 63 -28 33 -14 21 -11 57 -26 17 -8 34 -16 23 -6 11 26 13 28 3 17 -24 11 -148 67 -113 47 -63 29 rrcurveto
          -29 14 -18 4 7 vvcurveto
          7 19 5 21 9 vhcurveto
          34 14 38 15 22 10 34 15 34 16 33 15 136 64 rcurveline
          24 11 -3 15 -13 28 -11 26 -23 -6 -34 -16 -17 -8 -57 -26 -21 -11 -33 -14 -63 -32 -55 -25 -59 -27 -38 -21 -27 -16 rrcurveto
          -17 -10 -2 -25 -14 vvcurveto
          endchar
        </CharString>
        <CharString name="logicalnot">
          102 191 -21 183 75 hstem
          427 79 vstem
          62 424 rmoveto
          -77 callgsubr
          61 68 1 36 19 29 -1 22 hhcurveto
          -67 callgsubr
          47 vlineto
          62 -3 51 35 vvcurveto
          31 -3 12 -27 vhcurveto
          -65 callgsubr
          endchar
        </CharString>
        <CharString name="lslash">
          -158 -1 callsubr
          79 95 vstem
          -3 244 -8 callsubr
          11 -22 15 4 43 24 rrcurveto
          -126 1 11 -97 109 hhcurveto
          29 26 4 6 20 hvcurveto
          -58 callsubr
          47 0 51 -1 47 hvcurveto
          33 19 38 22 14 9 -27 callsubr
          rrcurveto
          68 -1 252 -14 callgsubr
          -59 callgsubr
          vvcurveto
          -43 vlineto
          -29 -16 -24 -14 -9 -5 -7 callsubr
          endchar
        </CharString>
        <CharString name="m">
          304 20 -21 365 80 -72 72 -1 -20 hstemhm
          82 90 174 90 183 96 hintmask 11001110
          163 433 rmoveto
          -11 -18 1 -14 hhcurveto
          -35 2 -24 -28 -3 hvcurveto
          -35 -2 -5 -43 -69 -4 -53 -86 vvcurveto
          -63 -6 -29 35 75 -10 18 55 vhcurveto
          60 2 59 54 33 -2 17 32 vvcurveto
          31 59 6 26 69 20 -24 -75 vhcurveto
          -53 -5 -69 -55 vvcurveto
          -20 -4 -22 8 -13 vhcurveto
          7 -12 68 -9 8 14 rrcurveto
          4 7 4 29 22 vvcurveto
          136 vlineto
          24 -3 24 43 vvcurveto
          hintmask 10101110
          41 27 20 66 98 -5 -71 -95 vhcurveto
          -120 vlineto
          -19 -3 -23 -18 vvcurveto
          -25 6 -2 31 50 12 6 47 vhcurveto
          186 vlineto
          -1 43 2 33 -11 30 rrcurveto
          62 -18 -43 38 -73 hhcurveto
          -69 -44 -33 -21 -32 hvcurveto
          hintmask 10011110
          34 -25 -28 19 -51 hhcurveto
          -50 1 -59 -31 -41 -14 -2 8 -2 20 -5 6 rrcurveto
          endchar
        </CharString>
        <CharString name="macron">
          0 530 77 -57 -21 hstemhm
          hintmask 10000000
          93 530 rmoveto
          hintmask 01000000
          78 167 -1 16 hhcurveto
          15 18 1 2 8 hvcurveto
          9 3 0 59 -2 7 rrcurveto
          hintmask 10000000
          13 -3 -64 -7 -43 -28 -154 -1 -19 hhcurveto
          -7 -5 -6 -8 -1 hvcurveto
          -1 -11 -1 -29 5 -15 rrcurveto
          -4 2 6 -3 4 hhcurveto
          endchar
        </CharString>
        <CharString name="minus">
          77 290 75 hstem
          62 361 -95 callsubr
          endchar
        </CharString>
        <CharString name="mu">
          113 -172 -21 181 77 367 -20 hstem
          81 88 221 93 vstem
          450 -9 rmoveto
          -2 6 8 -1 8 hhcurveto
          21 27 5 4 10 hvcurveto
          9 4 22 13 35 vvcurveto
          9 -2 8 -8 vhcurveto
          -10 -18 -7 -17 hhcurveto
          -20 -3 23 39 hvcurveto
          115 -3 60 91 vvcurveto
          15 0 18 -6 7 vhcurveto
          -47 callsubr
          -52 vlineto
          -36 callgsubr
          -106 -2 101 95 vhcurveto
          53 2 53 38 vvcurveto
          26 -9 1 -30 -55 4 -24 -35 vhcurveto
          -120 -4 -101 -100 vvcurveto
          -73 0 -161 10 -6 vhcurveto
          -6 12 16 1 17 hhcurveto
          13 12 0 5 9 hvcurveto
          5 2 -2 20 49 74 -3 16 29 vvcurveto
          -8 18 27 -6 27 114 18 64 29 hhcurveto
          9 8 -47 -14 34 hvcurveto
          endchar
        </CharString>
        <CharString name="multiply">
          69 116 119 rmoveto
          5 5 15 14 14 14 44 44 45 50 25 24 -1 -1 6 7 4 3 12 -12 11 -12 9 -8 17 -17 72 -74 14 -13 -11 callgsubr
          rrcurveto
          -46 46 -55 56 -55 56 122 122 rcurveline
          16 15 17 19 14 16 -6 9 -8 10 -11 11 -22 22 -12 -12 -15 -15 -33 -33 -63 -59 -52 -51 -60 60 -54 54 -34 32 -12 callgsubr
          -25 -24 66 -60 76 -76 10 -10 10 -11 10 -10 -55 -55 -109 -110 2 -9 3 -11 12 -11 10 -10 7 -7 7 -6 9 -2 2 -1 8 8 2 1 rrcurveto
          endchar
        </CharString>
        <CharString name="n">
          73 20 -21 377 68 hstem
          81 94 214 95 vstem
          -91 callsubr
          endchar
        </CharString>
        <CharString name="nacute">
          73 20 -21 377 68 87 -46 callsubr
          81 94 214 95 hintmask 11001100
          -91 callsubr
          hintmask 00110000
          119 96 -105 callgsubr
        </CharString>
        <CharString name="nine">
          66 -1 -21 325 74 261 74 hstemhm
          33 76 266 106 -97 97 hintmask 11110100
          244 -19 rmoveto
          131 93 106 175 180 vvcurveto
          175 -90 108 -149 -154 -55 -122 -89 -114 74 -84 113 63 55 26 43 46 vhcurveto
          -136 -83 -110 -111 -97 vhcurveto
          -2 -2 -1 -3 -3 vvcurveto
          -14 28 -29 18 3 5 1 2 3 vhcurveto
          122 466 rmoveto
          -34 -17 -54 -36 -59 hhcurveto
          -86 -41 56 77 67 52 61 76 hvcurveto
          hintmask 11111000
          85 53 -65 -87 -13 -3 -14 -6 -12 hvcurveto
          endchar
        </CharString>
        <CharString name="notequal">
          124 194 77 113 75 hstem
          87 455 rmoveto
          -77 callgsubr
          78 hlineto
          -11 -18 -11 -18 -10 -17 -13 -22 -12 -20 -12 -18 -65 -1 -74 -2 -4 -7 rrcurveto
          -27 callgsubr
          47 hlineto
          32 hlineto
          -47 -74 -27 -38 -4 -14 -2 -14 20 -15 24 -4 13 -4 55 80 53 86 rrcurveto
          24 78 -1 86 -28 callgsubr
          -52 -58 2 1 -66 hvcurveto
          6 10 5 10 6 9 12 21 19 30 21 34 rrcurveto
          5 hlineto
          -78 callgsubr
          -73 hlineto
          41 65 37 58 4 vvcurveto
          -1 3 -28 20 -16 5 -11 3 -50 -71 -55 -87 rrcurveto
          -74 -15 1 -141 hhcurveto
          -65 callsubr
          endchar
        </CharString>
        <CharString name="ntilde">
          73 10 0 110 196 endchar
        </CharString>
        <CharString name="numbersign">
          217 15 -21 27 -21 199 67 166 66 hstemhm
          hintmask 01110000
          129 494 rmoveto
          -8 -6 2 -14 -17 vvcurveto
          -24 18 -1 75 vhcurveto
          -6 -48 -7 -60 -7 -58 rrcurveto
          -57 -53 -1 -5 -3 hvcurveto
          -7 -9 2 -11 -14 vvcurveto
          -6 -19 callgsubr
          vhcurveto
          47 hlineto
          43 hlineto
          -7 -54 -5 -46 -3 -28 -2 -21 -1 -26 -2 -22 rrcurveto
          -2 11 12 -1 16 hhcurveto
          27 3 17 21 3 hvcurveto
          3 28 9 65 8 68 rrcurveto
          24 hlineto
          124 hlineto
          -8 -62 -8 -72 -1 -11 rrcurveto
          hintmask 10110000
          -36 -4 0 -24 28 hhcurveto
          30 11 3 27 3 hvcurveto
          7 61 8 58 6 56 rrcurveto
          51 hlineto
          21 26 1 22 hhcurveto
          2 11 1 11 14 vvcurveto
          25 -17 1 -21 1 vhcurveto
          -77 hlineto
          7 59 6 56 7 55 rrcurveto
          -1 21 21 0 11 1 callsubr
          2 25 27 -3 12 -27 hvcurveto
          -75 hlineto
          7 57 7 56 7 58 rrcurveto
          5 4 12 -6 8 vhcurveto
          8 -5 -18 -2 -16 hhcurveto
          -33 1 -28 -108 -12 hvcurveto
          -2 -16 -4 -24 -3 -26 rrcurveto
          -57 -43 1 -46 hhcurveto
          10 91 10 104 -6 4 rrcurveto
          7 -7 -15 -2 -13 hhcurveto
          -10 -10 -1 -4 -8 hvcurveto
          -2 -1 -13 -2 -2 hvcurveto
          -7 -3 -20 -2 -20 vhcurveto
          -7 -62 1 -7 -4 -34 rrcurveto
          0 -2 -14 -3 -20 vhcurveto
          -69 hlineto
          -5 -12 1 -6 -8 hvcurveto
          154 -116 rmoveto
          1 12 3 19 2 23 rrcurveto
          51 56 1 40 hhcurveto
          -8 -63 -7 -64 -2 -19 -1 -4 0 -8 -2 -10 rrcurveto
          -34 -34 1 -29 hhcurveto
          -50 hlineto
          5 45 6 41 3 26 rrcurveto
          endchar
        </CharString>
        <CharString name="o">
          74 -13 callsubr
          hstem
          -4 callsubr
          vstem
          -88 callsubr
          endchar
        </CharString>
        <CharString name="oacute">
          74 -13 callsubr
          87 -46 callsubr
          -4 callsubr
          hintmask 11001100
          -88 callsubr
          hintmask 00110000
          -143 311 -105 callgsubr
        </CharString>
        <CharString name="ocircumflex">
          74 45 0 111 -12 callsubr
        </CharString>
        <CharString name="odieresis">
          74 42 0 111 200 endchar
        </CharString>
        <CharString name="oe">
          401 -12 68 -68 74 184 52 77 69 -54 54 hstemhm
          44 98 283 100 hintmask 10110110
          802 -71 callsubr
          -82 -64 -32 -52 -40 hvcurveto
          65 -46 -77 19 -50 hhcurveto
          -51 callsubr
          80 71 35 58 44 hvcurveto
          -61 43 72 -32 64 hhcurveto
          -97 callsubr
          -377 -28 rmoveto
          hintmask 01110110
          -68 callgsubr
          117 77 rmoveto
          hintmask 10101110
          -33 callsubr
        </CharString>
        <CharString name="ogonek">
          -136 -217 -21 260 -20 hstem
          73 88 vstem
          165 9 rmoveto
          -32 -38 -60 -47 -63 vvcurveto
          -71 64 -28 59 42 40 17 16 11 -8 19 0 vhcurveto
          -4 -8 -20 -6 -15 hhcurveto
          -38 -28 22 37 53 51 52 26 30 hvcurveto
          1 1 0 1 1 vvcurveto
          5 -13 5 -15 -23 -17 -6 -7 -6 vhcurveto
          endchar
        </CharString>
        <CharString name="ograve">
          74 101 0 111 -5 callgsubr
        </CharString>
        <CharString name="one">
          -210 21 -21 hstem
          90 93 vstem
          89 691 rmoveto
          -1 -6 0 -5 -5 -28 2 -26 -21 -62 2 -402 -106 vvcurveto
          -29 6 -1 44 33 8 24 36 vhcurveto
          19 -2 23 24 vvcurveto
          76 8 484 -21 14 vhcurveto
          10 -15 -54 -19 -10 hhcurveto
          endchar
        </CharString>
        <CharString name="onehalf">
          314 0 58 -49 -21 344 60 320 -20 hstemhm
          99 72 444 71 hintmask 01111100
          284 -102 callgsubr
          295 -258 -63 callsubr
          hintmask 10111100
          -59 callsubr
          -480 608 -66 callgsubr
        </CharString>
        <CharString name="onequarter">
          298 9 -21 33 -21 167 48 497 -20 hstemhm
          99 72 409 68 hintmask 10111100
          284 -93 callsubr
          hintmask 01111100
          -87 callsubr
          -439 455 rmoveto
          -134 -57 callgsubr
          66 0 46 46 vvcurveto
          -55 callsubr
        </CharString>
        <CharString name="onesuperior">
          -255 349 -21 hstem
          77 72 vstem
          77 701 -66 callgsubr
        </CharString>
        <CharString name="ordfeminine">
          -30 191 70 -48 -21 146 62 252 60 hstemhm
          289 83 hintmask 10111000
          289 552 rmoveto
          -18 hlineto
          -100 -104 -29 -93 -62 59 -30 55 55 30 32 12 32 hvcurveto
          -1 -1 -1 -2 -1 vvcurveto
          -13 0 -19 26 40 10 1 36 vhcurveto
          164 vlineto
          107 -56 58 -107 -37 -72 -10 -27 -20 8 -16 12 vhcurveto
          22 21 13 36 hhcurveto
          55 35 -26 -60 hvcurveto
          -223 -325 -3 callsubr
          hintmask 01111000
          24 25 1 22 hhcurveto
          43 hlineto
          hintmask 10111000
          -25 callgsubr
          -30 1 -28 hhcurveto
          -127 hlineto
          -10 -8 -7 -14 hvcurveto
          97 228 rmoveto
          18 21 67 13 41 4 rrcurveto
          -10 vlineto
          -12 0 -34 -1 -16 vhcurveto
          -11 -3 -33 -24 -42 hhcurveto
          -29 -30 7 30 5 1 14 11 13 hvcurveto
          endchar
        </CharString>
        <CharString name="ordmasculine">
          35 191 70 -48 -21 146 69 240 65 hstemhm
          67 88 217 78 hintmask 10111100
          450 533 rmoveto
          145 -111 34 -62 -129 -81 -66 -126 -108 80 -74 105 109 89 80 115 vhcurveto
          -78 -6 rmoveto
          -63 -38 -57 -74 -53 -52 40 86 73 52 41 66 66 33 -53 -67 vhcurveto
          -306 -286 -3 callsubr
          hintmask 01111100
          24 46 1 40 hhcurveto
          69 hlineto
          hintmask 10111100
          -25 callgsubr
          -48 1 -45 hhcurveto
          -157 hlineto
          -10 -8 -7 -14 hvcurveto
          endchar
        </CharString>
        <CharString name="oslash">
          74 -13 callsubr
          hstem
          -4 callsubr
          vstem
          511 226 rmoveto
          74 -24 51 -34 33 vhcurveto
          42 51 34 41 6 vvcurveto
          1 4 -19 19 -18 7 -13 4 -37 -40 -45 -54 rrcurveto
          16 -34 -36 6 -27 hhcurveto
          -158 -99 -81 -153 -62 21 -52 35 -38 hvcurveto
          -42 -52 -28 -36 -4 -12 -6 -17 8 -8 29 -11 9 -3 40 40 50 56 rrcurveto
          -17 33 38 -10 42 hhcurveto
          133 109 98 140 hvcurveto
          -86 -7 rmoveto
          -83 -49 -74 -97 -24 -23 6 12 -21 vhcurveto
          57 68 59 75 41 54 10 13 11 14 11 14 rrcurveto
          17 -27 8 -34 -38 vvcurveto
          -116 93 rmoveto
          -54 -68 -50 -60 -43 -51 rrcurveto
          -13 24 -7 31 38 vvcurveto
          95 67 54 87 20 19 -4 -7 15 vhcurveto
          -14 -18 -13 -17 -14 -17 rrcurveto
          endchar
        </CharString>
        <CharString name="otilde">
          74 -13 callsubr
          78 -35 callsubr
          -4 callsubr
          hintmask 11000110
          -88 callsubr
          hintmask 00011000
          -217 424 -83 callgsubr
        </CharString>
        <CharString name="p">
          -94 callsubr
          23 -24 callgsubr
          -153 -8 callgsubr
        </CharString>
        <CharString name="paragraph">
          257 -216 -21 862 75 hstemhm
          339 85 0 96 hintmask 11100000
          339 279 rmoveto
          -135 -3 -197 -1 callgsubr
          vhcurveto
          795 vlineto
          16 7 8 13 vhcurveto
          62 hlineto
          hintmask 11010000
          14 -2 0 -10 -17 vvcurveto
          -123 vlineto
          -135 -3 -391 -1 callgsubr
          0 -9 811 9 6 vhcurveto
          9 6 48 -12 20 11 8 5 5 51 -2 8 rrcurveto
          14 -4 -54 -6 -44 hhcurveto
          -212 hlineto
          -195 -151 -51 -150 -156 136 -51 140 7 hvcurveto
          hintmask 11100000
          22 1 8 -11 -10 vvcurveto
          endchar
        </CharString>
        <CharString name="parenleft">
          -84 -6 callgsubr
          66 106 vstem
          66 238 rmoveto
          -249 151 -176 79 -64 vhcurveto
          -4 5 8 -7 9 hhcurveto
          11 24 15 18 5 -4 8 -3 3 hvcurveto
          -80 81 -94 154 216 vvcurveto
          216 94 154 80 81 vhcurveto
          3 3 4 8 5 vvcurveto
          18 -24 15 -11 -9 -8 -7 -4 -5 vhcurveto
          -79 -64 -151 -176 -249 vvcurveto
          endchar
        </CharString>
        <CharString name="parenright">
          -84 -6 callgsubr
          225 106 vstem
          331 238 rmoveto
          249 -151 176 -79 64 vhcurveto
          4 -5 -8 7 -9 hhcurveto
          -11 -24 -15 -18 -5 4 -8 3 -3 hvcurveto
          80 -81 94 -154 -216 vvcurveto
          -216 -94 -154 -80 -81 vhcurveto
          -3 -3 -4 -8 -5 vvcurveto
          -18 24 -15 11 9 8 7 4 5 vhcurveto
          79 64 151 176 249 vvcurveto
          endchar
        </CharString>
        <CharString name="percent">
          439 -21 callgsubr
          102 1 callgsubr
          vstem
          412 -102 callgsubr
          -3 200 -99 callsubr
          518 -383 -99 callsubr
          endchar
        </CharString>
        <CharString name="period">
          -187 7 -21 146 -20 hstem
          66 162 vstem
          140 130 rmoveto
          -86 callgsubr
        </CharString>
        <CharString name="periodcentered">
          -165 296 -21 146 -20 hstem
          77 162 vstem
          151 419 rmoveto
          -86 callgsubr
        </CharString>
        <CharString name="perthousand">
          792 -21 callgsubr
          82 1 callgsubr
          52 1 callgsubr
          vstem
          402 -102 callgsubr
          7 200 -99 callsubr
          498 -383 -99 callsubr
          468 5 -99 callsubr
          endchar
        </CharString>
        <CharString name="plus">
          77 128 -21 184 -4 callgsubr
          127 -88 callgsubr
          endchar
        </CharString>
        <CharString name="plusminus">
          77 69 75 217 -4 callgsubr
          197 -88 callgsubr
          -252 -57 -95 callsubr
          endchar
        </CharString>
        <CharString name="q">
          109 -241 -21 250 64 331 61 hstemhm
          44 99 280 82 -82 89 hintmask 11111000
          419 -258 rmoveto
          -5 14 21 1 17 hhcurveto
          18 16 4 13 hvcurveto
          1 32 2 397 40 20 0 23 18 vvcurveto
          hintmask 11110100
          10 4 56 15 vvcurveto
          41 5 25 -39 -16 -21 3 -3 -9 vhcurveto
          -3 -5 1 -25 -4 -16 -38 30 -54 26 -58 2 rrcurveto
          -131 -101 -101 -135 -135 104 -85 120 56 38 19 22 51 hvcurveto
          -59 -3 -225 9 -3 vhcurveto
          -252 569 rmoveto
          35 23 38 37 62 hhcurveto
          85 48 -40 -31 hvcurveto
          -25 -1 -36 -19 -24 1 -25 -22 vvcurveto
          -16 1 -50 -5 -5 vhcurveto
          -24 -11 -62 -14 -46 hhcurveto
          -98 -59 72 86 35 11 46 13 20 hvcurveto
          endchar
        </CharString>
        <CharString name="question">
          -13 9 -21 656 68 hstemhm
          117 162 -138 74 83 115 hintmask 11011000
          170 242 rmoveto
          -11 4 7 -6 11 hhcurveto
          21 5 11 17 hvcurveto
          16 -3 27 22 97 198 -13 159 vvcurveto
          107 -97 44 -107 -75 -79 -29 -38 -15 13 -21 9 vhcurveto
          15 32 35 66 hhcurveto
          70 38 -31 -49 hvcurveto
          -102 -157 3 -104 vvcurveto
          -41 23 -63 6 -15 vhcurveto
          21 -110 rmoveto
          hintmask 11101000
          -60 callsubr
          -73 callsubr
          vhcurveto
          hintmask 11011000
          -82 callgsubr
          endchar
        </CharString>
        <CharString name="questiondown">
          -89 -280 68 656 -20 hstemhm
          33 115 19 162 -98 74 hintmask 11101000
          276 190 rmoveto
          11 -4 -7 6 -11 hhcurveto
          -21 -5 -11 -17 hvcurveto
          -16 3 -27 -22 -97 -198 13 -159 vvcurveto
          -107 97 -44 107 75 79 29 38 15 -13 21 -9 vhcurveto
          -15 -32 -35 -66 hhcurveto
          -70 -38 31 49 hvcurveto
          102 157 -3 104 vvcurveto
          41 -23 63 -6 15 vhcurveto
          -21 110 rmoveto
          hintmask 11110000
          -16 callsubr
          vhcurveto
          hintmask 11101000
          -9 callsubr
        </CharString>
        <CharString name="quotedbl">
          -58 418 -21 315 -20 hstem
          66 119 53 -61 callgsubr
          172 hmoveto
          -75 callsubr
          endchar
        </CharString>
        <CharString name="quotedblbase">
          22 -159 -29 callgsubr
          -180 -75 callgsubr
        </CharString>
        <CharString name="quotedblleft">
          22 -10 callsubr
          37 85 -85 167 hintmask 11100100
          360 712 rmoveto
          -43 callsubr
          hintmask 11011000
          -42 callgsubr
          -204 hmoveto
          -43 callsubr
          hintmask 11101000
          -42 callgsubr
          endchar
        </CharString>
        <CharString name="quotedblright">
          0 423 -29 callgsubr
          402 -75 callgsubr
        </CharString>
        <CharString name="quoteleft">
          -182 -10 callsubr
          hintmask 11010000
          156 712 rmoveto
          -43 callsubr
          hintmask 11100000
          -42 callgsubr
          endchar
        </CharString>
        <CharString name="quoteright">
          -204 423 -53 callsubr
          hintmask 11100000
          143 402 -86 callsubr
        </CharString>
        <CharString name="quotesinglbase">
          -69 callsubr
        </CharString>
        <CharString name="quotesingle">
          -230 418 -21 315 -20 hstem
          66 -61 callgsubr
          endchar
        </CharString>
        <CharString name="r">
          -126 20 -21 444 -20 hstem
          84 89 vstem
          -79 callgsubr
          endchar
        </CharString>
        <CharString name="rcaron">
          -126 -24 0 114 207 endchar
        </CharString>
        <CharString name="rcommaaccent">
          -126 -334 -21 310 44 444 -20 hstemhm
          66 167 -149 89 -25 85 hintmask 11101000
          -79 callgsubr
          -28 -744 rmoveto
          hintmask 11110000
          -84 callsubr
        </CharString>
        <CharString name="registered">
          375 -12 60 462 52 90 60 hstem
          66 66 175 71 124 67 155 -80 callsubr
          205 -217 rmoveto
          48 -7 6 76 29 0 11 1 5 hvcurveto
          14 1 31 5 18 9 4 -6 15 -15 14 -15 24 -24 rcurveline
          29 -29 -2 -1 36 -34 rrcurveto
          -4 5 8 -8 8 hhcurveto
          11 25 29 4 1 hvcurveto
          12 -11 7 -8 10 vhcurveto
          -15 15 -12 13 -27 26 -14 15 -27 21 -12 11 rrcurveto
          32 22 43 45 59 vvcurveto
          85 -89 49 -115 vhcurveto
          -6 hlineto
          -27 -25 0 -26 hvcurveto
          -123 -1 -23 -23 -83 1 -14 -13 vvcurveto
          -39 vlineto
          -31 0 -22 3 -28 vhcurveto
          3 -4 24 0 0 vvcurveto
          40 349 rmoveto
          6 0 7 5 vvcurveto
          5 -1 5 4 69 53 -37 -58 -55 -60 -50 -63 -5 vhcurveto
          -2 57 0 59 61 vvcurveto
          endchar
        </CharString>
        <CharString name="ring">
          -98 495 -9 callgsubr
          612 -91 callgsubr
        </CharString>
        <CharString name="ring.cap">
          -98 763 -9 callgsubr
          880 -91 callgsubr
        </CharString>
        <CharString name="s">
          -145 -12 57 399 -20 hstem
          70 95 15 101 vstem
          263 437 rmoveto
          7 -7 -11 0 -10 hhcurveto
          -124 -41 -89 -45 -93 91 -37 15 -43 hvcurveto
          3 -9 1 -8 -7 vvcurveto
          -47 -57 -21 -25 callsubr
          105 41 99 vhcurveto
          107 -116 26 74 vvcurveto
          32 33 23 37 11 15 -4 0 0 7 16 1 13 vhcurveto
          1 9 -2 8 -5 5 rrcurveto
          endchar
        </CharString>
        <CharString name="scaron">
          -145 -64 0 115 207 endchar
        </CharString>
        <CharString name="section">
          -18 -12 60 604 60 hstemhm
          55 89 -65 88 129 88 -65 89 hintmask 11010100
          408 372 rmoveto
          151 -241 -19 81 vvcurveto
          39 47 28 87 vhcurveto
          25 30 -4 1 hhcurveto
          16 5 10 22 17 vvcurveto
          17 -47 3 -29 -148 -80 -62 -77 -53 34 -29 42 -21 vhcurveto
          hintmask 11101000
          -48 -28 -52 -47 -67 -151 241 19 -81 vvcurveto
          -39 -47 -28 -87 vhcurveto
          -25 -30 4 -1 hhcurveto
          -16 -5 -10 -22 -17 vvcurveto
          -17 47 -3 29 148 80 62 77 53 -34 29 -42 21 vhcurveto
          hintmask 11100100
          47 27 53 47 68 vvcurveto
          -89 -9 rmoveto
          -48 -45 -39 -40 -17 vhcurveto
          -49 19 -41 18 41 vvcurveto
          48 45 39 39 16 vhcurveto
          49 -18 42 -19 -40 vvcurveto
          endchar
        </CharString>
        <CharString name="semicolon">
          -152 -159 -21 310 169 146 -20 hstemhm
          77 162 -154 -34 callgsubr
          hintmask 11110000
          151 443 rmoveto
          -100 callsubr
          11 -623 rmoveto
          hintmask 11101000
          -84 callsubr
        </CharString>
        <CharString name="seven">
          -41 -1 -21 628 94 hstem
          396 699 rmoveto
          1 -46 -81 0 -69 hhcurveto
          -71 -97 0 -9 -15 hvcurveto
          -6 -4 0 -32 -15 vvcurveto
          -30 6 -4 20 vhcurveto
          14 15 0 5 hhcurveto
          -3 79 77 3 72 hhcurveto
          -24 -99 -15 -56 -27 -104 -22 -85 -28 -98 -24 -85 rrcurveto
          -8 -31 -9 -21 -32 vvcurveto
          -5 10 23 -12 13 hhcurveto
          19 3 11 33 9 hvcurveto
          14 51 17 59 12 44 31 97 89 339 14 87 rrcurveto
          endchar
        </CharString>
        <CharString name="six">
          66 -12 74 261 74 325 -20 hstemhm
          66 97 -97 106 266 76 hintmask 11110100
          303 719 rmoveto
          -131 -93 -106 -175 -180 vvcurveto
          -175 90 -108 149 154 55 122 89 114 -74 84 -113 -63 -55 -26 -43 -46 vhcurveto
          136 83 110 111 97 vhcurveto
          2 2 1 3 3 vvcurveto
          14 -28 29 -18 -3 -5 -1 -2 -3 vhcurveto
          -122 -466 rmoveto
          34 17 54 36 59 hhcurveto
          86 41 -56 -77 -67 -52 -61 -76 hvcurveto
          hintmask 11101100
          -85 -53 65 87 13 3 14 6 12 hvcurveto
          endchar
        </CharString>
        <CharString name="slash">
          -95 -70 -21 852 -20 hstem
          143 322 rmoveto
          -72 -233 -49 -123 -29 vvcurveto
          -18 29 -10 31 23 80 246 149 44 vhcurveto
          32 107 105 321 -3 8 rrcurveto
          4 -1 -40 17 -20 hhcurveto
          -22 -80 -256 -183 -57 hvcurveto
          endchar
        </CharString>
        <CharString name="space">
          -231 endchar
        </CharString>
        <CharString name="sterling">
          104 -17 93 -86 174 146 67 270 65 hstemhm
          hintmask 01110000
          44 73 rmoveto
          -51 39 -32 49 40 34 18 31 27 vhcurveto
          hintmask 10110000
          -28 45 54 -28 65 hhcurveto
          91 52 63 62 12 hvcurveto
          2 vlineto
          13 -22 12 -10 -2 -1 -1 -2 -1 vhcurveto
          -37 -25 -27 -19 -42 hhcurveto
          -54 -46 20 21 -44 hvcurveto
          13 35 7 40 42 vvcurveto
          27 -2 25 -4 24 vhcurveto
          89 hlineto
          -36 callsubr
          -132 hlineto
          -15 65 -20 53 49 vvcurveto
          64 35 39 56 vhcurveto
          91 22 -90 6 hhcurveto
          18 34 16 14 34 -67 91 -114 -108 -72 -76 -102 -51 16 -51 16 -54 hvcurveto
          -81 hlineto
          -5 -7 0 -5 -5 hvcurveto
          -5 -4 -1 -7 -9 vvcurveto
          -38 3 -5 58 vhcurveto
          63 hlineto
          10 -40 8 -41 -44 vvcurveto
          -14 -1 -12 -2 -12 vhcurveto
          hintmask 01110000
          10 -25 -24 7 -26 hhcurveto
          -56 -37 -42 -49 hvcurveto
          86 -36 rmoveto
          -20 -12 9 18 21 20 9 15 14 18 -10 -13 21 hvcurveto
          -22 -15 -20 -12 -21 hhcurveto
          endchar
        </CharString>
        <CharString name="t">
          -106 -12 73 301 68 -68 74 124 -20 hstemhm
          101 92 hintmask 10111000
          101 146 rmoveto
          -33 7 -37 12 -25 vhcurveto
          -49 30 38 -14 41 hhcurveto
          73 51 16 51 16 -20 2 -12 -3 hvcurveto
          -5 -19 -13 -4 -27 hhcurveto
          -60 -9 37 47 hvcurveto
          54 2 35 55 vvcurveto
          -1 0 58 2 18 vhcurveto
          2 4 11 0 5 20 18 -4 27 hhcurveto
          19 35 5 50 11 -3 8 -13 hvcurveto
          hintmask 11011000
          -34 -22 -6 -24 hhcurveto
          -14 -13 0 1 -12 hvcurveto
          32 3 41 37 vvcurveto
          13 -6 6 -12 -28 -39 0 -6 -12 vhcurveto
          -2 -9 1 -12 -9 -17 0 -24 -16 vvcurveto
          -15 2 -24 -16 vhcurveto
          -11 -16 3 -12 hhcurveto
          -24 -7 -15 -36 -13 8 -3 17 hvcurveto
          12 16 3 11 hhcurveto
          13 6 -1 -20 hvcurveto
          -34 -2 -28 -22 -42 -2 -29 -45 vvcurveto
          endchar
        </CharString>
        <CharString name="thorn">
          -94 callsubr
          328 -24 callgsubr
          -458 -8 callgsubr
        </CharString>
        <CharString name="three">
          -37 -37 59 623 65 hstemhm
          250 100 -71 99 hintmask 11010000
          86 -37 rmoveto
          152 5 140 76 156 vvcurveto
          84 -56 56 -54 29 vhcurveto
          -16 9 -16 6 9 vvcurveto
          hintmask 11100000
          9 12 105 77 102 vvcurveto
          79 -72 47 -108 -73 -83 -35 -21 -15 25 -14 6 vhcurveto
          1 18 55 19 30 hhcurveto
          69 33 -37 -50 -78 -75 -58 -32 -51 hvcurveto
          1 -8 29 -15 11 -5 rrcurveto
          hintmask 11010000
          52 -23 43 -43 -69 vvcurveto
          -130 -94 -51 -144 -5 vhcurveto
          -37 -10 32 -22 23 hhcurveto
          endchar
        </CharString>
        <CharString name="threequarters">
          418 9 -21 33 -21 167 48 87 45 365 -20 hstemhm
          244 77 379 68 hintmask 10111110
          404 -93 callsubr
          hintmask 01111110
          -87 callsubr
          -528 87 -85 callsubr
        </CharString>
        <CharString name="threesuperior">
          -83 302 45 365 -20 hstem
          244 77 vstem
          130 302 -85 callsubr
        </CharString>
        <CharString name="tilde">
          53 522 -35 callsubr
          hintmask 01100000
          198 643 -64 callsubr
        </CharString>
        <CharString name="tilde.cap">
          53 790 -35 callsubr
          hintmask 01100000
          198 911 -64 callsubr
        </CharString>
        <CharString name="trademark">
          508 321 -21 338 65 hstem
          170 74 vstem
          807 663 rmoveto
          -38 -67 -39 -67 -40 -70 -4 -8 -5 -6 -4 -8 rrcurveto
          -4 -70 147 55 -29 hvcurveto
          46 -22 -8 18 -17 hhcurveto
          -50 9 -34 -42 -8 hvcurveto
          -13 -97 -4 -98 -16 -94 rrcurveto
          -1 -6 -1 -4 -7 vvcurveto
          -19 7 -2 17 vhcurveto
          59 5 -24 14 28 257 rrcurveto
          -74 40 77 -172 20 hhcurveto
          18 32 67 30 19 hvcurveto
          23 37 35 62 25 41 rrcurveto
          -116 12 -8 -151 40 hhcurveto
          40 2 9 4 17 vvcurveto
          50 -32 276 2 -15 vhcurveto
          37 4 27 -40 -9 -8 -1 -2 -4 vhcurveto
          -654 -187 rmoveto
          -15 -1 -17 -18 vvcurveto
          -62 vlineto
          -41 1 -39 9 -9 vhcurveto
          -2 2 rlineto
          -7 5 8 0 10 hhcurveto
          41 2 9 33 hvcurveto
          4 68 -3 64 2 59 rrcurveto
          103 vlineto
          20 26 0 2 13 hvcurveto
          -1 hlineto
          1 15 26 0 25 hhcurveto
          43 9 6 31 19 -6 4 -17 hvcurveto
          -4 -4 -1 -73 -17 -18 -1 -17 -17 -19 1 -18 -65 -69 -2 -6 hhcurveto
          -15 hlineto
          -27 -11 1 -38 -20 17 -3 15 hvcurveto
          3 3 0 45 17 17 1 14 hhcurveto
          24 hlineto
          -1 -2 0 -11 -1 -9 rrcurveto
          endchar
        </CharString>
        <CharString name="two">
          -15 0 83 543 86 hstem
          291 91 vstem
          161 85 rmoveto
          44 85 177 225 147 vvcurveto
          102 -57 68 -119 -57 -112 -38 -41 -26 22 -18 2 1 vhcurveto
          9 20 55 27 49 hhcurveto
          61 45 -48 -69 -139 -263 -350 6 -12 hvcurveto
          -8 4 24 0 16 85 106 0 98 hhcurveto
          47 19 14 56 16 -12 2 -18 hvcurveto
          -15 -16 -5 -12 hhcurveto
          -63 1 -74 -3 -62 4 rrcurveto
          endchar
        </CharString>
        <CharString name="twosuperior">
          -63 320 58 274 60 hstem
          238 71 vstem
          202 413 -63 callsubr
          -59 callsubr
          endchar
        </CharString>
        <CharString name="u">
          0 callsubr
          hstem
          70 90 221 93 vstem
          -101 callgsubr
          endchar
        </CharString>
        <CharString name="uacute">
          0 callsubr
          119 -46 callsubr
          70 90 221 93 hintmask 11001100
          -101 callgsubr
          hintmask 00110000
          -153 103 -105 callgsubr
        </CharString>
        <CharString name="ucircumflex">
          74 45 0 117 -12 callsubr
        </CharString>
        <CharString name="udieresis">
          0 callsubr
          105 6 callgsubr
          70 90 -41 -30 callsubr
          -54 93 hintmask 11010010
          -101 callgsubr
          hintmask 00101100
          -299 198 -106 callsubr
        </CharString>
        <CharString name="ugrave">
          74 71 0 117 -5 callgsubr
        </CharString>
        <CharString name="underscore">
          8 -238 69 -47 -21 hstemhm
          hintmask 10000000
          -14 -174 rmoveto
          -6 -5 0 -15 -17 vvcurveto
          -23 2 -4 16 vhcurveto
          hintmask 01000000
          120 338 1 37 hhcurveto
          9 7 8 20 hvcurveto
          hintmask 10000000
          26 -3 14 -27 vhcurveto
          -75 -349 0 -44 hhcurveto
          -5 -15 -1 -4 -5 hvcurveto
          endchar
        </CharString>
        <CharString name="uni00A0">
          -231 endchar
        </CharString>
        <CharString name="v">
          -5 9 -21 hstem
          252 124 rmoveto
          -45 72 -31 91 -42 79 -13 22 -19 55 -20 1 rrcurveto
          -26 2 -44 -23 -8 vvcurveto
          -2 -31 40 -57 9 -23 44 -96 41 -80 52 -102 rrcurveto
          -18 10 16 -20 18 hhcurveto
          14 17 35 10 7 hvcurveto
          63 109 58 121 45 106 6 13 16 31 -2 9 -3 7 -26 16 -15 -1 rrcurveto
          -5 -2 -1 -3 -2 hvcurveto
          -39 -75 -47 -108 -36 -73 -4 -8 -22 -38 -11 -14 rrcurveto
          endchar
        </CharString>
        <CharString name="w">
          246 8 -21 22 -21 hstemhm
          hintmask 01000000
          379 163 rmoveto
          -57 35 59 -118 12 hhcurveto
          28 48 106 42 24 hvcurveto
          36 64 48 99 27 60 rrcurveto
          4 10 16 47 11 vvcurveto
          -2 6 -24 11 -11 -1 -24 -6 -25 -69 1 3 -30 -63 -85 -191 -14 1 -2 2 -19 39 -4 10 -35 74 -25 62 -33 63 -7 12 -27 57 -15 1 -12 -6 -51 -18 -1 -14 rrcurveto
          -11 12 -22 7 -14 vhcurveto
          6 -12 19 -47 8 -16 rrcurveto
          8 -13 15 -38 0 vvcurveto
          -2 -7 -97 -117 1 -1 rrcurveto
          2 -96 203 62 -28 hvcurveto
          -10 24 -22 52 -14 1 -14 1 -53 -18 -1 -16 -1 -7 14 -31 8 -17 13 -28 133 -272 15 -28 rrcurveto
          hintmask 10000000
          -8 5 27 -33 8 hhcurveto
          22 73 113 15 10 hvcurveto
          10 16 30 32 0 vvcurveto
          endchar
        </CharString>
        <CharString name="x">
          -35 9 -21 455 -6 callsubr
          hintmask 11000000
          299 356 rmoveto
          -9 -10 -42 -60 -18 -1 rrcurveto
          -11 -48 68 15 -14 hvcurveto
          18 -16 -40 57 -20 hhcurveto
          -18 -41 -24 -14 -18 69 -76 23 -27 hvcurveto
          21 -25 39 -35 -19 vvcurveto
          -6 -38 -44 -5 -4 vhcurveto
          -22 -25 -78 -85 -22 vvcurveto
          -10 19 -21 14 21 64 83 37 29 vhcurveto
          15 12 15 27 13 hhcurveto
          14 49 -70 -10 9 hvcurveto
          -22 20 38 -60 20 hhcurveto
          25 31 31 16 27 -51 49 -20 26 hvcurveto
          -22 30 -49 49 -1 18 rrcurveto
          9 20 17 10 11 vhcurveto
          45 53 58 69 17 vvcurveto
          hintmask 10100000
          3 -19 31 -13 -9 -47 -56 -32 -27 vhcurveto
          endchar
        </CharString>
        <CharString name="y">
          18 -215 -21 680 -20 hstem
          -89 callsubr
          endchar
        </CharString>
        <CharString name="yacute">
          18 103 -10 121 194 endchar
        </CharString>
        <CharString name="ydieresis">
          18 -215 -21 680 -20 93 6 callgsubr
          101 -30 callsubr
          hintmask 11000000
          -89 callsubr
          hintmask 00111000
          -126 457 -106 callsubr
        </CharString>
        <CharString name="yen">
          191 21 -21 175 71 67 67 332 -20 hstem
          286 102 vstem
          123 376 rmoveto
          0 callgsubr
          -34 28 7 108 vhcurveto
          34 hlineto
          -21 -1 -22 -24 vvcurveto
          -70 -93 -1 -9 -4 hvcurveto
          -34 callsubr
          13 56 3 34 hhcurveto
          1 hlineto
          -39 -1 -45 -8 -5 callsubr
          39 127 vhcurveto
          11 98 vlineto
          -21 callsubr
          10 16 vvcurveto
          29 -17 -1 -21 1 vhcurveto
          -132 68 30 hlineto
          24 43 -1 19 hhcurveto
          -36 callsubr
          -128 hlineto
          43 54 103 104 22 25 -70 callsubr
          -28 callsubr
          9 -8 7 -7 6 -6 rrcurveto
          -124 -24 callsubr
          endchar
        </CharString>
        <CharString name="z">
          -38 0 60 305 67 hstem
          -90 callgsubr
          endchar
        </CharString>
        <CharString name="zcaron">
          -38 0 60 305 67 91 -21 hstemhm
          hintmask 11000000
          -90 callgsubr
          hintmask 00100000
          43 520 -100 callgsubr
        </CharString>
        <CharString name="zero">
          150 -12 81 566 77 hstem
          55 99 342 80 vstem
          55 341 rmoveto
          -186 89 -167 173 151 108 128 242 221 -105 133 -145 -209 -62 -206 -165 vhcurveto
          99 18 rmoveto
          168 62 108 115 93 72 -118 -156 -171 -62 -121 -110 -106 -64 120 170 vhcurveto
          endchar
        </CharString>
      <CharString index="0">
        51 26 44 36 27 vvcurveto
        20 -34 26 -21 -27 -6 -40 -43 -57 vhcurveto
        -20 -15 -34 -15 -14 vvcurveto
        -12 2 14 -16 15 hhcurveto
        15 33 7 13 25 hvcurveto
        return
      </CharString>
      <CharString index="1">
        -107 callgsubr
        endchar
      </CharString>
      <CharString index="2">
        rmoveto
        -106 callgsubr
      </CharString>
      <CharString index="3">
        193 -93 callgsubr
        -23 -2 -53 4 -9 -10 rrcurveto
        -6 -7 -1 -16 -19 -28 1 -34 -13 -41 callsubr
        -25 -2 -94 12 -11 vhcurveto
        -6 7 39 0 15 17 150 0 16 hhcurveto
        -103 callgsubr
        return
      </CharString>
      <CharString index="4">
        52 94 -2 8 14 hvcurveto
        8 6 1 14 5 17 rrcurveto
        3 7 6 14 9 -56 callsubr
        -3 -27 -30 0 -32 hhcurveto
        -63 -117 -1 13 -6 hvcurveto
        -6 14 4 168 27 vvcurveto
        17 1 29 0 vhcurveto
        78 81 -1 62 -62 callsubr
        12 31 20 vvcurveto
        18 -70 -2 -43 vhcurveto
        -56 callgsubr
        return
      </CharString>
      <CharString index="5">
        351 rmoveto
        -122 -190 -85 -129 2 callgsubr
        20 -20 22 22 137 221 111 70 vhcurveto
        52 82 194 281 -6 -1 rrcurveto
        0 -29 30 -14 -19 -153 -222 -139 -89 vhcurveto
        return
      </CharString>
      <CharString index="6">
        465 427 rmoveto
        -47 callsubr
        -16 0 -18 -18 -36 callgsubr
        -105 -3 101 93 vhcurveto
        53 2 49 44 vvcurveto
        26 -9 1 -30 -46 -4 -16 -25 vhcurveto
        -5 -1 -7 -6 -24 -2 -110 -25 vvcurveto
        -96 24 -130 135 113 19 67 -3 28 vhcurveto
        9 3 -7 -45 14 -8 11 -6 47 3 7 1 rrcurveto
        15 2 -11 79 40 110 -3 59 84 vvcurveto
        17 1 27 -7 9 vhcurveto
        return
      </CharString>
      <CharString index="7">
        rmoveto
        -21 -84 55 5 -12 hvcurveto
        -24 10 -13 -31 -6 vvcurveto
        -11 74 -56 12 -10 vhcurveto
        -18 23 24 -24 21 hhcurveto
        21 28 26 16 19 hvcurveto
        11 10 75 56 11 vvcurveto
        6 -14 30 -24 -10 vhcurveto
        -5 -12 -83 -54 -21 hhcurveto
        endchar
      </CharString>
      <CharString index="8">
        420 -71 callsubr
        -146 -88 -101 -134 -145 119 -76 98 -97 callsubr
        -260 49 rmoveto
        -74 callgsubr
        return
      </CharString>
      <CharString index="9">
        87 694 rmoveto
        -9 -15 -1 -50 -33 vvcurveto
        -78 0 -85 9 -70 vhcurveto
        -227 28 83 -148 226 hhcurveto
        165 108 96 144 43 hvcurveto
        45 137 -7 149 161 vvcurveto
        26 -8 0 -22 -48 1 -11 -43 vhcurveto
        -46 1 -26 -27 vvcurveto
        -236 -32 -243 -229 -283 20 324 237 vhcurveto
        8 2 17 14 vvcurveto
        return
      </CharString>
      <CharString index="10">
        55 341 rmoveto
        -32 callsubr
        -31 callgsubr
        -46 callgsubr
        -268 -103 vhcurveto
        111 18 -84 callgsubr
        return
      </CharString>
      <CharString index="11">
        11 79 97 112 62 -38 39 -51 -45 -33 -34 -40 hvcurveto
        return
      </CharString>
      <CharString index="12">
        124 675 rmoveto
        -25 -5 -27 -19 -1 -24 rrcurveto
        -20 25 -28 13 -4 vhcurveto
        -2 6 6 -1 6 hhcurveto
        28 28 19 29 4 hvcurveto
        1 5 0 4 4 vvcurveto
        28 -17 16 -29 -5 -7 -1 -1 -6 vhcurveto
        49 -656 -105 callsubr
        return
      </CharString>
      <CharString index="13">
        -96 callsubr
        endchar
      </CharString>
      <CharString index="14">
        621 rmoveto
        8 46 46 -1 50 -73 callgsubr
        18 -29 -2 -28 vhcurveto
        -22 -64 1 -46 hhcurveto
        -28 -44 2 -3 -41 hvcurveto
        return
      </CharString>
      <CharString index="15">
        -14 -23 -46 -69 -85 vhcurveto
        -4 -5 -5 -11 -9 vvcurveto
        -16 13 -7 8 12 15 7 15 15 vhcurveto
        28 28 116 104 38 vvcurveto
        38 -116 104 -28 28 vhcurveto
        15 -15 -15 7 -12 hhcurveto
        -8 -13 -7 -16 -9 4 -11 5 -5 hvcurveto
        50 -69 42 -61 -13 vvcurveto
        return
      </CharString>
      <CharString index="16">
        rmoveto
        86 -69 20 -36 -78 -46 -39 -75 -64 48 -45 63 64 54 48 69 vhcurveto
        -60 -4 rmoveto
        -30 -20 -29 -37 -25 -25 21 42 35 25 20 32 33 17 -25 -34 vhcurveto
        endchar
      </CharString>
      <CharString index="17">
        179 68 rmoveto
        26 40 26 38 31 42 39 59 36 35 37 66 rrcurveto
        10 17 19 27 17 vvcurveto
        24 -74 -1 -47 vhcurveto
        -38 -38 -2 -49 -15 -18 1 -18 hhcurveto
        -48 -11 2 -40 -26 10 -2 39 hvcurveto
        61 33 2 43 16 21 -1 16 hhcurveto
        -7 -18 -15 -13 -11 -15 -68 -87 -64 -85 -63 -92 rrcurveto
        -8 -12 -17 -20 -10 vvcurveto
        -21 247 7 61 32 37 -1 47 13 -15 2 -20 vhcurveto
        -13 -13 -1 -8 hhcurveto
        2 -63 -25 0 -54 hhcurveto
        -7 -6 1 5 -7 hvcurveto
        return
      </CharString>
      <CharString index="18">
        -4 -19 -24 -27 vvcurveto
        -36 23 -17 return
      </CharString>
      <CharString index="19">
        rmoveto
        47 vlineto
        62 -3 7 35 vvcurveto
        13 46 vlineto
        -78 callgsubr
        -40 -58 1 -64 hhcurveto
        113 vlineto
        22 -1 25 -1 22 vhcurveto
        2 -11 -13 1 -15 hhcurveto
        -31 0 -17 -21 -44 -3 -49 -1 -54 hvcurveto
        -148 -24 callsubr
        -77 callgsubr
        43 hlineto
        -67 callgsubr
        return
      </CharString>
      <CharString index="20">
        rmoveto
        21 83 -54 -5 12 hvcurveto
        24 -10 14 30 6 vvcurveto
        11 -75 56 -11 10 vhcurveto
        16 -19 -28 26 -21 hhcurveto
        -21 -24 -24 -18 -23 hvcurveto
        -12 -10 -74 -56 -11 vvcurveto
        -6 13 -31 24 10 vhcurveto
        5 12 84 55 21 hhcurveto
        endchar
      </CharString>
      <CharString index="21">
        -100 callsubr
        endchar
      </CharString>
      <CharString index="22">
        -61 callsubr
        hhcurveto
        -119 -110 -73 -108 hvcurveto
        -77 callsubr
        136 73 43 47 39 hvcurveto
        -53 callgsubr
        return
      </CharString>
      <CharString index="23">
        rmoveto
        -44 callgsubr
        135 119 -116 -156 -38 callgsubr
        -156 -106 114 174 vhcurveto
        return
      </CharString>
      <CharString index="24">
        -81 callsubr
        hintmask 00100000
        -90 callsubr
        hintmask 00011000
        -44 callsubr
      </CharString>
      <CharString index="25">
        40 -23 22 -41 -7 -9 -1 -33 callgsubr
        return
      </CharString>
      <CharString index="26">
        310 243 rmoveto
        -74 callsubr
        70 48 46 9 28 hvcurveto
        return
      </CharString>
      <CharString index="27">
        rmoveto
        -30 -6 -37 -25 -29 vvcurveto
        -54 59 -16 11 43 33 32 44 36 -21 20 -37 -6 -8 -1 -1 -7 vhcurveto
        endchar
      </CharString>
      <CharString index="28">
        171 389 rmoveto
        -1 7 0 9 8 vvcurveto
        19 -20 3 -30 -40 7 -61 -46 -3 vhcurveto
        -1 -33 -6 -160 -29 vvcurveto
        -30 3 -67 9 -6 vhcurveto
        -2 3 19 -2 18 hhcurveto
        50 -4 17 49 hvcurveto
        -2 -2 150 102 vvcurveto
        21 28 79 8 64 9 rrcurveto
        4 8 3 30 12 vvcurveto
        23 -6 10 -20 -63 -60 -52 -2 -24 vhcurveto
        return
      </CharString>
      <CharString index="29">
        -50 callsubr
        3 29 31 -3 12 -27 hvcurveto
        return
      </CharString>
      <CharString index="30">
        -8 -6 2 -18 -17 vvcurveto
        -34 28 4 108 vhcurveto
        return
      </CharString>
      <CharString index="31">
        -14 callsubr
        161 219 rmoveto
        -92 callsubr
        return
      </CharString>
      <CharString index="32">
        rmoveto
        -96 callgsubr
        hintmask 11011000
        -96 callsubr
        204 hmoveto
        -84 callsubr
      </CharString>
      <CharString index="33">
        46 6 57 48 56 hhcurveto
        58 39 -39 -53 4 hvcurveto
        -5 -75 -75 3 -70 hhcurveto
        return
      </CharString>
      <CharString index="34">
        34 14 -2 75 hhcurveto
        30 -10 12 21 4 hvcurveto
        1 10 3 8 6 vvcurveto
        return
      </CharString>
      <CharString index="35">
        -5 71 -1 64 67 60 1 61 69 vvcurveto
        45 0 12 -54 -23 -6 -1 -28 -4 vhcurveto
        -4 -28 0 -32 -34 -48 1 -46 -49 -48 -4 -307 -53 vvcurveto
        -48 callgsubr
        37 0 vhcurveto
        81 -70 49 -59 74 -74 rrcurveto
        return
      </CharString>
      <CharString index="36">
        -16 -1 -45 -35 -58 hhcurveto
        -38 -41 11 42 7 1 19 15 18 hvcurveto
        return
      </CharString>
      <CharString index="37">
        -51 callgsubr
        hintmask 01011000
        -41 callgsubr
        hintmask 10011000
        -60 callgsubr
        return
      </CharString>
      <CharString index="38">
        rmoveto
        -50 callgsubr
        2 -34 -1 -38 vhcurveto
        -1 -34 return
      </CharString>
      <CharString index="39">
        -83 -49 -74 -97 -70 -67 53 111 95 67 54 87 86 43 -69 -87 vhcurveto
        return
      </CharString>
      <CharString index="40">
        -70 1 -103 8 -5 vhcurveto
        -6 10 16 1 14 hhcurveto
        10 9 1 4 8 -68 callsubr
        return
      </CharString>
      <CharString index="41">
        rmoveto
        -165 -57 callgsubr
        158 vlineto
        -55 callsubr
      </CharString>
      <CharString index="42">
        -248 68 1 -206 hhcurveto
        -65 callsubr
        return
      </CharString>
      <CharString index="43">
        -81 callsubr
        hintmask 00010000
        -90 callsubr
        hintmask 00001100
        -44 callsubr
      </CharString>
      <CharString index="44">
        -1 -19 hhcurveto
        -7 -5 -7 -9 -1 hvcurveto
        -1 -13 -1 -28 5 -16 rrcurveto
        -5 2 6 -4 4 hhcurveto
        endchar
      </CharString>
      <CharString index="45">
        -181 551 -21 132 -20 hstem
        77 146 vstem
        144 660 -80 callgsubr
      </CharString>
      <CharString index="46">
        119 vstem
        185 666 rmoveto
        -75 callsubr
        return
      </CharString>
      <CharString index="47">
        -13 -35 -9 -23 -29 -24 -1 -24 hhcurveto
        -30 -29 1 1 -36 hvcurveto
        -31 1 -32 -3 -25 10 rrcurveto
        return
      </CharString>
      <CharString index="48">
        6 -10 -22 0 -19 hhcurveto
        -33 -4 -21 -56 -20 1 -24 -1 -30 hvcurveto
        -2 -46 3 -101 -101 return
      </CharString>
      <CharString index="49">
        -57 callsubr
        129 19 22 174 89 40 vvcurveto
        10 -19 17 -15 -13 -30 -28 -9 -13 vhcurveto
        return
      </CharString>
      <CharString index="50">
        vlineto
        -71 1 -82 -32 vvcurveto
        -21 5 -2 34 27 5 16 23 12 -1 10 1 13 vhcurveto
        return
      </CharString>
      <CharString index="51">
        -61 -58 -1 -52 hhcurveto
        71 0 71 2 68 vhcurveto
        return
      </CharString>
      <CharString index="52">
        rmoveto
        -13 25 33 -7 15 hhcurveto
        15 14 16 12 2 hvcurveto
        14 -34 15 -20 15 vhcurveto
        43 -57 -6 40 -27 hhcurveto
        -21 -34 -26 -20 -27 44 -36 51 -26 hvcurveto
        endchar
      </CharString>
      <CharString index="53">
        -66 -26 57 -86 hhcurveto
        -73 -62 -75 -29 -10 26 -20 18 hvcurveto
        21 17 58 50 hhcurveto
        return
      </CharString>
      <CharString index="54">
        22 27 24 40 45 196 -251 24 135 vvcurveto
        70 59 27 75 vhcurveto
        return
      </CharString>
      <CharString index="55">
        1 40 vhcurveto
        1 3 4 0 4 19 24 -2 23 hhcurveto
        32 17 13 36 29 -59 -8 -29 hvcurveto
        -7 -9 -1 -7 hhcurveto
        -6 -5 1 1 -3 hvcurveto
        return
      </CharString>
      <CharString index="56">
        -40 callsubr
        40 1 22 hhcurveto
        137 hlineto
        return
      </CharString>
      <CharString index="57">
        -6 -12 2 -21 -15 vvcurveto
        -36 return
      </CharString>
      <CharString index="58">
        -21 155 -20 return
      </CharString>
      <CharString index="59">
        -54 -3 -12 44 62 -5 15 50 vhcurveto
        50 -2 15 34 vvcurveto
        21 1 return
      </CharString>
      <CharString index="60">
        -35 -79 hvcurveto
        -1 -7 0 -17 0 vvcurveto
        return
      </CharString>
      <CharString index="61">
        232 -165 122 -190 -328 -61 return
      </CharString>
      <CharString index="62">
        218 83 -63 -21 hstemhm
        hintmask 10000000
        71 218 rmoveto
        hintmask 01000000
        78 return
      </CharString>
      <CharString index="63">
        168 123 106 166 return
      </CharString>
      <CharString index="64">
        -54 callgsubr
        hintmask 10010100
        56 40 -57 75 hhcurveto
        return
      </CharString>
      <CharString index="65">
        75 -82 -17 44 48 53 40 12 vvcurveto
        15 -18 19 -30 vhcurveto
        return
      </CharString>
      <CharString index="66">
        63 77 -1 41 hhcurveto
        10 34 31 36 10 -4 7 -9 hvcurveto
        return
      </CharString>
      <CharString index="67">
        351 9 -21 324 68 328 -20 return
      </CharString>
      <CharString index="68">
        rmoveto
        25 30 92 15 51 5 rrcurveto
        return
      </CharString>
      <CharString index="69">
        -171 -109 -119 -172 return
      </CharString>
      <CharString index="70">
        -1 -5 -6 0 -7 -8 -10 0 -9 hhcurveto
        -22 -20 -4 -26 -31 17 -7 19 17 18 3 -3 13 hvcurveto
        return
      </CharString>
      <CharString index="71">
        -86 -5 -78 -18 vvcurveto
        -37 -85 -11 -23 return
      </CharString>
      <CharString index="72">
        -1 19 1 callsubr
        return
      </CharString>
      <CharString index="73">
        167 -85 85 return
      </CharString>
      <CharString index="74">
        -1 -8 vhcurveto
        return
      </CharString>
      <CharString index="75">
        62 1 74 -54 -21 700 -6 callsubr
        return
      </CharString>
      <CharString index="76">
        206 170 150 220 return
      </CharString>
      <CharString index="77">
        -131 -171 -171 -125 return
      </CharString>
      <CharString index="78">
        -53 callsubr
        37 -34 callgsubr
        hintmask 11101000
        143 return
      </CharString>
      <CharString index="79">
        hhcurveto
        -21 callsubr
        13 16 vvcurveto
        29 -17 1 -21 1 vhcurveto
        return
      </CharString>
      <CharString index="80">
        -7 -9 2 -15 2 callgsubr
        -19 callgsubr
        -1 vhcurveto
        return
      </CharString>
      <CharString index="81">
        28 -11 3 -18 -22 -28 1 -7 -13 vhcurveto
        return
      </CharString>
      <CharString index="82">
        8 12 -1 12 hhcurveto
        27 hlineto
        28 19 4 27 29 -2 10 -24 hvcurveto
        -90 return
      </CharString>
      <CharString index="83">
        -3 5 rrcurveto
        3 -9 -27 -2 -16 hhcurveto
        -39 4 -23 -41 -1 hvcurveto
        -46 3 return
      </CharString>
      <CharString index="84">
        -235 20 -21 434 -20 return
      </CharString>
      <CharString index="85">
        13 78 20 182 -9 vvcurveto
        31 -24 5 -35 -34 -17 -5 -25 vhcurveto
        return
      </CharString>
      <CharString index="86">
        -12 65 209 62 52 65 209 62 hstem
        66 1 callgsubr
        return
      </CharString>
      <CharString index="87">
        43 105 3 54 10 -5 14 -12 hvcurveto
        return
      </CharString>
      <CharString index="88">
        1 -10 4 -8 vhcurveto
        -2 13 0 2 return
      </CharString>
      <CharString index="89">
        374 -12 81 631 -20 21 -20 return
      </CharString>
      <CharString index="90">
        18 -123 29 -60 1 vhcurveto
        -240 -182 -163 -218 return
      </CharString>
      <CharString index="91">
        15 -20 5 -26 -42 -8 -12 -21 -23 1 -27 -1 -26 vhcurveto
        return
      </CharString>
      <CharString index="92">
        19 -12 68 190 52 92 54 return
      </CharString>
      <CharString index="93">
        45 vvcurveto
        6 1 9 -7 4 vhcurveto
        return
      </CharString>
      <CharString index="94">
        9 -21 724 -20 return
      </CharString>
      <CharString index="95">
        rrcurveto
        4 -4 -7 10 -10 hhcurveto
        -10 2 -11 -14 -12 -12 return
      </CharString>
      <CharString index="96">
        25 -25 19 -15 21 20 22 22 6 11 -19 19 return
      </CharString>
      <CharString index="97">
        109 hstem
        77 -30 callsubr
        vstem
        124 return
      </CharString>
      <CharString index="98">
        54 118 51 hstem
        77 62 107 60 vstem
        306 return
      </CharString>
      <CharString index="99">
        -1 -36 vhcurveto
        -13 -6 -315 -1 -15 vhcurveto
        endchar
      </CharString>
      <CharString index="100">
        531 -49 callgsubr
        hstem
        return
      </CharString>
      <CharString index="101">
        -241 -21 1000 -20 hstem
        return
      </CharString>
      <CharString index="102">
        193 endchar
      </CharString>
      <CharString index="103">
        74 186 -20 hstem
        239 75 vstem
        314 return
      </CharString>
      <CharString index="104">
        -262 67 397 72 397 67 hstemhm
        return
      </CharString>
      <CharString index="105">
        vlineto
        -29 3 -14 30 55 14 9 78 vhcurveto
        return
      </CharString>
      <CharString index="106">
        -97 vvcurveto
        -78 0 -9 55 30 3 14 29 return
      </CharString>
      <CharString index="107">
        -8 -6 2 -13 -17 vvcurveto
        return
      </CharString>
      <CharString index="108">
        82 188 73 return
      </CharString>
      <CharString index="109">
        -14 vvcurveto
        -10 return
      </CharString>
      <CharString index="110">
        -25 -3 -126 -19 -61 -10 rrcurveto
        return
      </CharString>
      <CharString index="111">
        423 -38 callsubr
        return
      </CharString>
      <CharString index="112">
        vhcurveto
        15 9 6 22 12 vvcurveto
        29 return
      </CharString>
      <CharString index="113">
        109 hstemhm
        return
      </CharString>
</ttFont>
